<svg width="21" height="20" viewBox="0 0 21 20" fill="none" xmlns="http://www.w3.org/2000/svg">
<path d="M10.8488 1.6665C6.2488 1.6665 2.5238 5.39984 2.5238 9.99984C2.5238 14.5998 6.2488 18.3332 10.8488 18.3332C15.4571 18.3332 19.1905 14.5998 19.1905 9.99984C19.1905 5.39984 15.4571 1.6665 10.8488 1.6665ZM10.8571 16.6665C7.1738 16.6665 4.19047 13.6832 4.19047 9.99984C4.19047 6.3165 7.1738 3.33317 10.8571 3.33317C14.5405 3.33317 17.5238 6.3165 17.5238 9.99984C17.5238 13.6832 14.5405 16.6665 10.8571 16.6665ZM10.6738 5.83317H10.6238C10.2905 5.83317 10.0238 6.09984 10.0238 6.43317V10.3665C10.0238 10.6582 10.1738 10.9332 10.4321 11.0832L13.8905 13.1582C14.1738 13.3248 14.5405 13.2415 14.7071 12.9582C14.8821 12.6748 14.7905 12.2998 14.4988 12.1332L11.2738 10.2165V6.43317C11.2738 6.09984 11.0071 5.83317 10.6738 5.83317Z" fill="white"/>
</svg>
