<?xml version="1.0" standalone="no"?>
<!DOCTYPE svg PUBLIC "-//W3C//DTD SVG 20010904//EN"
 "http://www.w3.org/TR/2001/REC-SVG-20010904/DTD/svg10.dtd">
<svg version="1.0" xmlns="http://www.w3.org/2000/svg"
 width="117.000000pt" height="166.000000pt" viewBox="0 0 117.000000 166.000000"
 preserveAspectRatio="xMidYMid meet">

<g transform="translate(0.000000,166.000000) scale(0.100000,-0.100000)"
fill="#000000" stroke="none">
<path d="M15 1638 c-3 -7 -4 -337 -3 -733 l3 -720 283 -3 282 -2 0 -66 c0
-116 23 -127 133 -65 l69 39 70 -39 c76 -42 112 -49 122 -23 3 9 6 47 6 85 l0
69 89 0 c72 0 90 3 95 16 3 9 6 259 6 556 l0 540 -182 179 -183 178 -393 1
c-305 0 -394 -3 -397 -12z m735 -216 c0 -110 4 -162 12 -170 8 -8 60 -12 170
-12 l158 0 0 -495 0 -495 -55 0 -55 0 0 49 c0 34 8 65 28 102 86 168 -37 368
-228 369 -99 0 -198 -66 -238 -159 -25 -58 -20 -147 11 -208 19 -36 27 -68 27
-103 l0 -50 -250 0 -250 0 0 665 0 665 335 0 335 0 0 -158z m182 1 c54 -54 98
-101 98 -106 0 -4 -46 -6 -102 -5 l-103 3 -3 103 c-1 56 1 102 5 102 4 0 52
-44 105 -97z m-100 -733 c93 -26 148 -117 127 -211 -20 -88 -87 -139 -180
-139 -169 0 -246 215 -113 316 54 42 102 51 166 34z m-90 -423 c36 -8 59 -7
102 5 l56 15 0 -88 c0 -49 -2 -89 -5 -89 -3 0 -30 14 -60 31 l-55 31 -55 -31
c-30 -17 -57 -31 -60 -31 -3 0 -5 41 -5 91 0 83 2 90 18 84 9 -5 38 -13 64
-18z"/>
<path d="M280 1115 c-6 -8 -10 -22 -8 -32 3 -17 23 -18 313 -18 l310 0 3 24
c2 13 -2 28 -10 32 -7 5 -144 9 -304 9 -243 0 -294 -2 -304 -15z"/>
<path d="M274 936 c-3 -8 -4 -23 -2 -33 3 -17 22 -18 313 -18 l310 0 0 30 0
30 -308 3 c-262 2 -308 0 -313 -12z"/>
<path d="M695 607 c-43 -43 -52 -79 -34 -131 27 -77 117 -109 186 -66 74 45
83 139 19 197 -31 28 -43 33 -87 33 -45 0 -55 -4 -84 -33z m131 -62 c28 -44
-9 -94 -61 -81 -24 6 -41 38 -36 66 9 46 70 56 97 15z"/>
</g>
</svg>
