<svg width="14" height="24" viewBox="0 0 14 24" fill="none" xmlns="http://www.w3.org/2000/svg">
<path d="M7.73335 10.5333C4.70669 9.74667 3.73335 8.93333 3.73335 7.66667C3.73335 6.21333 5.08002 5.2 7.33335 5.2C9.22669 5.2 10.1734 5.92 10.52 7.06667C10.68 7.6 11.12 8 11.68 8H12.08C12.96 8 13.5867 7.13333 13.28 6.30667C12.72 4.73333 11.4134 3.42667 9.33335 2.92V2C9.33335 0.893333 8.44002 0 7.33335 0C6.22669 0 5.33335 0.893333 5.33335 2V2.88C2.74669 3.44 0.666687 5.12 0.666687 7.69333C0.666687 10.7733 3.21335 12.3067 6.93335 13.2C10.2667 14 10.9334 15.1733 10.9334 16.4133C10.9334 17.3333 10.28 18.8 7.33335 18.8C5.13335 18.8 4.00002 18.0133 3.56002 16.8933C3.36002 16.3733 2.90669 16 2.36002 16H1.98669C1.09335 16 0.466687 16.9067 0.80002 17.7333C1.56002 19.5867 3.33335 20.68 5.33335 21.1067V22C5.33335 23.1067 6.22669 24 7.33335 24C8.44002 24 9.33335 23.1067 9.33335 22V21.1333C11.9334 20.64 14 19.1333 14 16.4C14 12.6133 10.76 11.32 7.73335 10.5333Z" fill="#238478"/>
</svg>
