<svg width="229" height="120" viewBox="0 0 229 120" fill="none" xmlns="http://www.w3.org/2000/svg">
<path d="M114.857 117.428C146.574 117.428 172.286 91.7168 172.286 59.9999C172.286 28.2829 146.574 2.57129 114.857 2.57129C83.1402 2.57129 57.4286 28.2829 57.4286 59.9999C57.4286 91.7168 83.1402 117.428 114.857 117.428Z" fill="#2A9D8F"/>
<path fill-rule="evenodd" clip-rule="evenodd" d="M114.857 5.14286C84.5604 5.14286 60 29.7032 60 60C60 90.2968 84.5604 114.857 114.857 114.857C145.154 114.857 169.714 90.2968 169.714 60C169.714 29.7032 145.154 5.14286 114.857 5.14286ZM54.8571 60C54.8571 26.8629 81.7201 0 114.857 0C147.994 0 174.857 26.8629 174.857 60C174.857 93.1371 147.994 120 114.857 120C81.7201 120 54.8571 93.1371 54.8571 60Z" fill="white"/>
<path d="M196.286 73.7144H228.857L218.571 87.4286L228.857 101.143H196.286V73.7144Z" fill="#203B46"/>
<path d="M32.5714 73.7144H1.04904e-05L10.2857 87.4286L1.04904e-05 101.143H32.5714V73.7144Z" fill="#203B46"/>
<path d="M147.013 49.6688L141.602 40.7432L133.078 36.4923L129.731 39.3375L115.997 25.7144L102.943 36.1686L100.633 34.6292L86.4193 45.9535L82.0121 42.7184L65.1429 60.0001H164.439L152.882 45.7192L147.013 49.6688ZM73.8913 53.6069L82.0357 45.2726L84.747 47.2136L73.8913 53.6069ZM115.172 47.2136L104.316 37.7198L115.752 28.6042L115.172 47.2136ZM130.479 41.6351L133.38 39.1136L138.813 42.6056L140.554 52.29L130.479 41.6351ZM152.18 55.5486L148.688 51.0862L152.18 48.9554L155.281 52.6372L152.18 55.5486Z" fill="#203B46"/>
<rect width="198" height="30.8571" transform="translate(15.4286 60)" fill="#264653"/>
<path d="M25.3135 81.4286L30.4778 67.2858H34.0135L39.1778 81.4286H36.1135L32.8778 71.8072L32.2349 69.6643H32.192L31.592 71.7643L28.3349 81.4286H25.3135ZM28.3563 77.9786V75.7929H36.1135V77.9786H28.3563Z" fill="white"/>
<path d="M40.1184 85.9286V70.7143H42.7542L42.947 74.1215L42.5827 73.7358C42.7113 73.1072 42.947 72.5501 43.2899 72.0643C43.647 71.5786 44.097 71.2001 44.6399 70.9286C45.1827 70.6429 45.7899 70.5001 46.4613 70.5001C47.3327 70.5001 48.1113 70.7215 48.797 71.1643C49.4827 71.6072 50.0184 72.2429 50.4042 73.0715C50.8042 73.8858 51.0042 74.8786 51.0042 76.0501C51.0042 77.2215 50.8042 78.2286 50.4042 79.0715C50.0042 79.9001 49.4542 80.5358 48.7542 80.9786C48.0684 81.4215 47.2827 81.6429 46.397 81.6429C45.4542 81.6429 44.6684 81.3786 44.0399 80.8501C43.4256 80.3215 43.0042 79.6572 42.7756 78.8572L43.0542 78.4072V85.9286H40.1184ZM45.5399 79.3929C46.3256 79.3929 46.9399 79.1143 47.3827 78.5572C47.8399 77.9858 48.0684 77.1572 48.0684 76.0715C48.0684 74.9858 47.847 74.1643 47.4042 73.6072C46.9756 73.0358 46.3684 72.7501 45.5827 72.7501C45.0827 72.7501 44.6399 72.8858 44.2542 73.1572C43.8827 73.4143 43.5899 73.7929 43.3756 74.2929C43.1613 74.7786 43.0542 75.3715 43.0542 76.0715C43.0542 76.7429 43.1542 77.3358 43.3542 77.8501C43.5542 78.3501 43.8399 78.7358 44.2113 79.0072C44.597 79.2643 45.0399 79.3929 45.5399 79.3929Z" fill="white"/>
<path d="M52.696 85.9286V70.7143H55.3317L55.5246 74.1215L55.1603 73.7358C55.2889 73.1072 55.5246 72.5501 55.8674 72.0643C56.2246 71.5786 56.6746 71.2001 57.2174 70.9286C57.7603 70.6429 58.3674 70.5001 59.0389 70.5001C59.9103 70.5001 60.6889 70.7215 61.3746 71.1643C62.0603 71.6072 62.596 72.2429 62.9817 73.0715C63.3817 73.8858 63.5817 74.8786 63.5817 76.0501C63.5817 77.2215 63.3817 78.2286 62.9817 79.0715C62.5817 79.9001 62.0317 80.5358 61.3317 80.9786C60.646 81.4215 59.8603 81.6429 58.9746 81.6429C58.0317 81.6429 57.246 81.3786 56.6174 80.8501C56.0032 80.3215 55.5817 79.6572 55.3532 78.8572L55.6317 78.4072V85.9286H52.696ZM58.1174 79.3929C58.9032 79.3929 59.5174 79.1143 59.9603 78.5572C60.4174 77.9858 60.646 77.1572 60.646 76.0715C60.646 74.9858 60.4246 74.1643 59.9817 73.6072C59.5532 73.0358 58.946 72.7501 58.1603 72.7501C57.6603 72.7501 57.2174 72.8858 56.8317 73.1572C56.4603 73.4143 56.1674 73.7929 55.9532 74.2929C55.7389 74.7786 55.6317 75.3715 55.6317 76.0715C55.6317 76.7429 55.7317 77.3358 55.9317 77.8501C56.1317 78.3501 56.4174 78.7358 56.7889 79.0072C57.1746 79.2643 57.6174 79.3929 58.1174 79.3929Z" fill="white"/>
<path d="M68.1664 66.0215V78.1286C68.1664 78.6286 68.2521 78.9786 68.4236 79.1786C68.595 79.3786 68.8807 79.4786 69.2807 79.4786C69.5236 79.4786 69.7236 79.4643 69.8807 79.4358C70.0379 79.3929 70.2379 79.3358 70.4807 79.2643L70.2236 81.1929C69.9807 81.3358 69.6736 81.4429 69.3021 81.5143C68.945 81.6001 68.5879 81.6429 68.2307 81.6429C67.1879 81.6429 66.4236 81.3929 65.9379 80.8929C65.4664 80.3786 65.2307 79.5643 65.2307 78.4501V66.0215H68.1664Z" fill="white"/>
<path d="M72.7379 69.1715C72.1236 69.1715 71.6665 69.0429 71.3665 68.7858C71.0665 68.5143 70.9165 68.1215 70.9165 67.6072C70.9165 67.0786 71.0665 66.6858 71.3665 66.4286C71.6665 66.1572 72.1236 66.0215 72.7379 66.0215C73.3522 66.0215 73.8093 66.1572 74.1093 66.4286C74.4093 66.6858 74.5593 67.0786 74.5593 67.6072C74.5593 68.1215 74.4093 68.5143 74.1093 68.7858C73.8093 69.0429 73.3522 69.1715 72.7379 69.1715ZM74.1951 70.7143V81.4286H71.2593V70.7143H74.1951Z" fill="white"/>
<path d="M82.5571 74.5929C82.5571 73.9786 82.3785 73.5001 82.0213 73.1572C81.6785 72.8143 81.2213 72.6429 80.6499 72.6429C80.1213 72.6429 79.6571 72.7786 79.2571 73.0501C78.8571 73.3215 78.5642 73.7715 78.3785 74.4001L75.8713 73.6286C76.1142 72.6858 76.6428 71.9286 77.4571 71.3572C78.2856 70.7858 79.3928 70.5001 80.7785 70.5001C81.7213 70.5001 82.5428 70.6501 83.2428 70.9501C83.9428 71.2358 84.4856 71.6715 84.8713 72.2572C85.2713 72.8429 85.4713 73.5786 85.4713 74.4643V78.8143C85.4713 79.3572 85.7285 79.6286 86.2428 79.6286C86.4856 79.6286 86.7142 79.5929 86.9285 79.5215L86.7571 81.3429C86.3856 81.5286 85.9213 81.6215 85.3642 81.6215C84.8642 81.6215 84.4142 81.5358 84.0142 81.3643C83.6142 81.1929 83.2999 80.9358 83.0713 80.5929C82.8428 80.2358 82.7285 79.7929 82.7285 79.2643V79.1786L83.2428 79.0929C83.1571 79.6358 82.9213 80.1001 82.5356 80.4858C82.1499 80.8572 81.6785 81.1429 81.1213 81.3429C80.5785 81.5429 80.0142 81.6429 79.4285 81.6429C78.6999 81.6429 78.0713 81.5358 77.5428 81.3215C77.0142 81.0929 76.6071 80.7643 76.3213 80.3358C76.0356 79.9072 75.8928 79.3786 75.8928 78.7501C75.8928 77.9501 76.1499 77.3001 76.6642 76.8001C77.1785 76.2858 77.9142 75.9358 78.8713 75.7501L82.8999 74.9358L82.8785 76.7572L80.3071 77.2715C79.8213 77.3715 79.4499 77.5072 79.1928 77.6786C78.9499 77.8358 78.8285 78.1001 78.8285 78.4715C78.8285 78.8286 78.9571 79.1001 79.2142 79.2858C79.4856 79.4715 79.8071 79.5643 80.1785 79.5643C80.4785 79.5643 80.7713 79.5286 81.0571 79.4572C81.3428 79.3858 81.5999 79.2715 81.8285 79.1143C82.0571 78.9572 82.2356 78.7429 82.3642 78.4715C82.4928 78.2001 82.5571 77.8715 82.5571 77.4858V74.5929Z" fill="white"/>
<path d="M87.8975 81.4286V70.7143H90.5332L90.7046 73.9286L90.3403 73.5858C90.5117 72.8858 90.7832 72.3143 91.1546 71.8715C91.526 71.4143 91.976 71.0715 92.5046 70.8429C93.0475 70.6143 93.6403 70.5001 94.2832 70.5001C95.026 70.5001 95.6832 70.6429 96.2546 70.9286C96.8403 71.2143 97.2975 71.6501 97.626 72.2358C97.9689 72.8072 98.1403 73.5286 98.1403 74.4001V81.4286H95.2046V75.2358C95.2046 74.3215 95.026 73.6929 94.6689 73.3501C94.3117 72.9929 93.8475 72.8143 93.276 72.8143C92.876 72.8143 92.4832 72.9143 92.0975 73.1143C91.726 73.3001 91.4189 73.6072 91.176 74.0358C90.9475 74.4643 90.8332 75.0358 90.8332 75.7501V81.4286H87.8975Z" fill="white"/>
<path d="M105.172 70.5001C106.129 70.5001 106.936 70.6429 107.593 70.9286C108.265 71.2001 108.8 71.5786 109.2 72.0643C109.615 72.5358 109.908 73.0643 110.079 73.6501L107.336 74.6358C107.193 73.9929 106.95 73.5072 106.608 73.1786C106.265 72.8501 105.8 72.6858 105.215 72.6858C104.672 72.6858 104.208 72.8143 103.822 73.0715C103.436 73.3143 103.143 73.6929 102.943 74.2072C102.743 74.7072 102.643 75.3358 102.643 76.0929C102.643 76.8501 102.743 77.4786 102.943 77.9786C103.158 78.4786 103.458 78.8501 103.843 79.0929C104.243 79.3358 104.708 79.4572 105.236 79.4572C105.665 79.4572 106.029 79.3858 106.329 79.2429C106.629 79.0858 106.872 78.8643 107.058 78.5786C107.258 78.2929 107.393 77.9501 107.465 77.5501L110.122 78.4072C109.965 79.0501 109.672 79.6143 109.243 80.1001C108.815 80.5858 108.265 80.9643 107.593 81.2358C106.922 81.5072 106.143 81.6429 105.258 81.6429C104.158 81.6429 103.186 81.4215 102.343 80.9786C101.5 80.5358 100.85 79.9001 100.393 79.0715C99.9362 78.2429 99.7076 77.2429 99.7076 76.0715C99.7076 74.9001 99.9362 73.9001 100.393 73.0715C100.85 72.2429 101.493 71.6072 102.322 71.1643C103.15 70.7215 104.1 70.5001 105.172 70.5001Z" fill="white"/>
<path d="M116.517 81.6429C115.389 81.6429 114.403 81.4215 113.56 80.9786C112.732 80.5358 112.089 79.9001 111.632 79.0715C111.174 78.2429 110.946 77.2429 110.946 76.0715C110.946 74.9001 111.174 73.9001 111.632 73.0715C112.089 72.2429 112.724 71.6072 113.539 71.1643C114.367 70.7215 115.31 70.5001 116.367 70.5001C117.453 70.5001 118.374 70.7215 119.132 71.1643C119.889 71.5929 120.467 72.1858 120.867 72.9429C121.267 73.6858 121.467 74.5358 121.467 75.4929C121.467 75.7786 121.46 76.0501 121.446 76.3072C121.432 76.5643 121.41 76.7929 121.382 76.9929H112.832V74.9572H120.096L118.682 75.4715C118.682 74.5715 118.474 73.8786 118.06 73.3929C117.66 72.9072 117.089 72.6643 116.346 72.6643C115.803 72.6643 115.332 72.7929 114.932 73.0501C114.546 73.3072 114.253 73.6929 114.053 74.2072C113.853 74.7072 113.753 75.3429 113.753 76.1143C113.753 76.8715 113.86 77.5001 114.074 78.0001C114.303 78.4858 114.617 78.8501 115.017 79.0929C115.432 79.3358 115.924 79.4572 116.496 79.4572C117.124 79.4572 117.632 79.3358 118.017 79.0929C118.403 78.8501 118.703 78.5143 118.917 78.0858L121.253 78.9858C121.024 79.5429 120.674 80.0215 120.203 80.4215C119.746 80.8215 119.196 81.1286 118.553 81.3429C117.924 81.5429 117.246 81.6429 116.517 81.6429Z" fill="white"/>
<path d="M129.091 81.4286V67.2858H139.698V69.6643H132.048V73.1786H138.069V75.4501H132.048V79.0501H139.998V81.4286H129.091Z" fill="white"/>
<path d="M143.873 70.7143L146.701 75.4072L147.494 75.3858L151.78 81.4286H148.373L145.458 76.6286L144.58 76.5429L140.444 70.7143H143.873ZM151.715 70.7143L147.58 76.4786L146.701 76.4143L143.573 81.4286H140.251L144.687 75.3429L145.523 75.4501L148.373 70.7143H151.715Z" fill="white"/>
<path d="M152.837 85.9286V70.7143H155.473L155.665 74.1215L155.301 73.7358C155.43 73.1072 155.665 72.5501 156.008 72.0643C156.365 71.5786 156.815 71.2001 157.358 70.9286C157.901 70.6429 158.508 70.5001 159.18 70.5001C160.051 70.5001 160.83 70.7215 161.515 71.1643C162.201 71.6072 162.737 72.2429 163.123 73.0715C163.523 73.8858 163.723 74.8786 163.723 76.0501C163.723 77.2215 163.523 78.2286 163.123 79.0715C162.723 79.9001 162.173 80.5358 161.473 80.9786C160.787 81.4215 160.001 81.6429 159.115 81.6429C158.173 81.6429 157.387 81.3786 156.758 80.8501C156.144 80.3215 155.723 79.6572 155.494 78.8572L155.773 78.4072V85.9286H152.837ZM158.258 79.3929C159.044 79.3929 159.658 79.1143 160.101 78.5572C160.558 77.9858 160.787 77.1572 160.787 76.0715C160.787 74.9858 160.565 74.1643 160.123 73.6072C159.694 73.0358 159.087 72.7501 158.301 72.7501C157.801 72.7501 157.358 72.8858 156.973 73.1572C156.601 73.4143 156.308 73.7929 156.094 74.2929C155.88 74.7786 155.773 75.3715 155.773 76.0715C155.773 76.7429 155.873 77.3358 156.073 77.8501C156.273 78.3501 156.558 78.7358 156.93 79.0072C157.315 79.2643 157.758 79.3929 158.258 79.3929Z" fill="white"/>
<path d="M170.386 81.6429C169.257 81.6429 168.272 81.4215 167.429 80.9786C166.6 80.5358 165.957 79.9001 165.5 79.0715C165.043 78.2429 164.814 77.2429 164.814 76.0715C164.814 74.9001 165.043 73.9001 165.5 73.0715C165.957 72.2429 166.593 71.6072 167.407 71.1643C168.236 70.7215 169.179 70.5001 170.236 70.5001C171.322 70.5001 172.243 70.7215 173 71.1643C173.757 71.5929 174.336 72.1858 174.736 72.9429C175.136 73.6858 175.336 74.5358 175.336 75.4929C175.336 75.7786 175.329 76.0501 175.314 76.3072C175.3 76.5643 175.279 76.7929 175.25 76.9929H166.7V74.9572H173.964L172.55 75.4715C172.55 74.5715 172.343 73.8786 171.929 73.3929C171.529 72.9072 170.957 72.6643 170.214 72.6643C169.672 72.6643 169.2 72.7929 168.8 73.0501C168.414 73.3072 168.122 73.6929 167.922 74.2072C167.722 74.7072 167.622 75.3429 167.622 76.1143C167.622 76.8715 167.729 77.5001 167.943 78.0001C168.172 78.4858 168.486 78.8501 168.886 79.0929C169.3 79.3358 169.793 79.4572 170.364 79.4572C170.993 79.4572 171.5 79.3358 171.886 79.0929C172.272 78.8501 172.572 78.5143 172.786 78.0858L175.122 78.9858C174.893 79.5429 174.543 80.0215 174.072 80.4215C173.614 80.8215 173.064 81.1286 172.422 81.3429C171.793 81.5429 171.114 81.6429 170.386 81.6429Z" fill="white"/>
<path d="M176.967 81.4286V70.7143H179.517L179.71 72.8143C179.995 72.0715 180.41 71.5001 180.952 71.1001C181.51 70.7001 182.202 70.5001 183.031 70.5001C183.274 70.5001 183.495 70.5215 183.695 70.5643C183.895 70.6072 184.06 70.6643 184.188 70.7358L183.845 73.2001C183.702 73.1429 183.524 73.1001 183.31 73.0715C183.11 73.0429 182.845 73.0286 182.517 73.0286C182.088 73.0286 181.674 73.1358 181.274 73.3501C180.874 73.5501 180.545 73.8643 180.288 74.2929C180.031 74.7072 179.902 75.2358 179.902 75.8786V81.4286H176.967Z" fill="white"/>
<path d="M188.545 67.4358V77.9358C188.545 78.4501 188.674 78.8286 188.931 79.0715C189.202 79.3001 189.566 79.4143 190.024 79.4143C190.395 79.4143 190.709 79.3643 190.966 79.2643C191.238 79.1501 191.481 79.0001 191.695 78.8143L192.166 80.7643C191.824 81.0358 191.395 81.2501 190.881 81.4072C190.366 81.5643 189.824 81.6429 189.252 81.6429C188.538 81.6429 187.902 81.5358 187.345 81.3215C186.802 81.1072 186.374 80.7643 186.059 80.2929C185.759 79.8215 185.609 79.1929 185.609 78.4072V68.2501L188.545 67.4358ZM191.974 70.7143V72.9001H183.638V70.7143H191.974Z" fill="white"/>
<path d="M197.388 81.6429C196.303 81.6429 195.31 81.4501 194.41 81.0643C193.524 80.6786 192.803 80.1358 192.245 79.4358L193.938 77.7215C194.281 78.2358 194.738 78.6572 195.31 78.9858C195.881 79.3143 196.56 79.4786 197.345 79.4786C197.903 79.4786 198.345 79.4001 198.674 79.2429C199.017 79.0715 199.188 78.8072 199.188 78.4501C199.188 78.2215 199.11 78.0286 198.953 77.8715C198.795 77.7001 198.481 77.5643 198.01 77.4643L196.124 77.0786C194.881 76.8215 193.995 76.4358 193.467 75.9215C192.953 75.3929 192.695 74.7143 192.695 73.8858C192.695 73.3001 192.867 72.7501 193.21 72.2358C193.567 71.7215 194.095 71.3072 194.795 70.9929C195.495 70.6643 196.367 70.5001 197.41 70.5001C198.481 70.5001 199.41 70.6715 200.195 71.0143C200.995 71.3429 201.624 71.8358 202.081 72.4929L200.324 74.2072C200.01 73.7072 199.595 73.3286 199.081 73.0715C198.581 72.8001 198.053 72.6643 197.495 72.6643C197.095 72.6643 196.753 72.7072 196.467 72.7929C196.181 72.8786 195.967 73.0001 195.824 73.1572C195.681 73.3001 195.61 73.4858 195.61 73.7143C195.61 73.9429 195.71 74.1429 195.91 74.3143C196.11 74.4715 196.474 74.6072 197.003 74.7215L199.188 75.1715C200.245 75.3858 201.003 75.7501 201.46 76.2643C201.917 76.7643 202.145 77.3715 202.145 78.0858C202.145 78.7715 201.96 79.3858 201.588 79.9286C201.231 80.4572 200.695 80.8786 199.981 81.1929C199.281 81.4929 198.417 81.6429 197.388 81.6429Z" fill="white"/>
<path d="M114.857 96L116.204 100.146H120.563L117.037 102.708L118.384 106.854L114.857 104.292L111.33 106.854L112.678 102.708L109.151 100.146H113.51L114.857 96Z" fill="white"/>
<path d="M130.286 96L131.248 98.9614H134.362L131.843 100.792L132.805 103.753L130.286 101.923L127.767 103.753L128.729 100.792L126.21 98.9614H129.324L130.286 96Z" fill="white"/>
<path d="M99.4286 96L100.391 98.9614H103.505L100.985 100.792L101.948 103.753L99.4286 101.923L96.9095 103.753L97.8717 100.792L95.3526 98.9614H98.4664L99.4286 96Z" fill="white"/>
<path d="M196.286 90.8569H213.429L196.286 101.143V90.8569Z" fill="#49646F"/>
<path d="M32.5714 90.8569H15.4286L32.5714 101.143V90.8569Z" fill="#49646F"/>
</svg>
