<svg width="229" height="120" viewBox="0 0 229 120" fill="none" xmlns="http://www.w3.org/2000/svg">
<path d="M114.857 117.429C146.574 117.429 172.286 91.7169 172.286 60C172.286 28.2831 146.574 2.57143 114.857 2.57143C83.1402 2.57143 57.4286 28.2831 57.4286 60C57.4286 91.7169 83.1402 117.429 114.857 117.429Z" fill="#FDF3F1"/>
<path fill-rule="evenodd" clip-rule="evenodd" d="M114.857 5.14286C84.5604 5.14286 60 29.7032 60 60C60 90.2968 84.5604 114.857 114.857 114.857C145.154 114.857 169.714 90.2968 169.714 60C169.714 29.7032 145.154 5.14286 114.857 5.14286ZM54.8571 60C54.8571 26.8629 81.7201 0 114.857 0C147.994 0 174.857 26.8629 174.857 60C174.857 93.1371 147.994 120 114.857 120C81.7201 120 54.8571 93.1371 54.8571 60Z" fill="#2A9D8F"/>
<path d="M196.286 73.7143H228.857L218.571 87.4286L228.857 101.143H196.286V73.7143Z" fill="#203B46"/>
<path d="M32.5714 73.7143H1.04904e-05L10.2857 87.4286L1.04904e-05 101.143H32.5714V73.7143Z" fill="#203B46"/>
<path d="M147.013 49.6688L141.602 40.7431L133.078 36.4922L129.731 39.3374L115.997 25.7143L102.943 36.1685L100.633 34.6292L86.4193 45.9534L82.0121 42.7183L65.1429 60H164.439L152.882 45.7191L147.013 49.6688ZM73.8913 53.6068L82.0357 45.2726L84.747 47.2135L73.8913 53.6068ZM115.172 47.2135L104.316 37.7198L115.752 28.6041L115.172 47.2135ZM130.479 41.635L133.38 39.1136L138.813 42.6055L140.554 52.2899L130.479 41.635ZM152.18 55.5485L148.688 51.0861L152.18 48.9554L155.281 52.6371L152.18 55.5485Z" fill="#203B46"/>
<rect width="198" height="30.8571" transform="translate(15.4286 60)" fill="#264653"/>
<path d="M25.3135 81.4286L30.4778 67.2857H34.0135L39.1778 81.4286H36.1135L32.8778 71.8071L32.2349 69.6643H32.192L31.592 71.7643L28.3349 81.4286H25.3135ZM28.3563 77.9786V75.7929H36.1135V77.9786H28.3563Z" fill="white"/>
<path d="M40.1184 85.9286V70.7143H42.7542L42.947 74.1214L42.5827 73.7357C42.7113 73.1071 42.947 72.55 43.2899 72.0643C43.647 71.5786 44.097 71.2 44.6399 70.9286C45.1827 70.6429 45.7899 70.5 46.4613 70.5C47.3327 70.5 48.1113 70.7214 48.797 71.1643C49.4827 71.6071 50.0184 72.2429 50.4042 73.0714C50.8042 73.8857 51.0042 74.8786 51.0042 76.05C51.0042 77.2214 50.8042 78.2286 50.4042 79.0714C50.0042 79.9 49.4542 80.5357 48.7542 80.9786C48.0684 81.4214 47.2827 81.6429 46.397 81.6429C45.4542 81.6429 44.6684 81.3786 44.0399 80.85C43.4256 80.3214 43.0042 79.6571 42.7756 78.8571L43.0542 78.4071V85.9286H40.1184ZM45.5399 79.3929C46.3256 79.3929 46.9399 79.1143 47.3827 78.5571C47.8399 77.9857 48.0684 77.1571 48.0684 76.0714C48.0684 74.9857 47.847 74.1643 47.4042 73.6071C46.9756 73.0357 46.3684 72.75 45.5827 72.75C45.0827 72.75 44.6399 72.8857 44.2542 73.1571C43.8827 73.4143 43.5899 73.7929 43.3756 74.2929C43.1613 74.7786 43.0542 75.3714 43.0542 76.0714C43.0542 76.7429 43.1542 77.3357 43.3542 77.85C43.5542 78.35 43.8399 78.7357 44.2113 79.0071C44.597 79.2643 45.0399 79.3929 45.5399 79.3929Z" fill="white"/>
<path d="M52.696 85.9286V70.7143H55.3317L55.5246 74.1214L55.1603 73.7357C55.2889 73.1071 55.5246 72.55 55.8674 72.0643C56.2246 71.5786 56.6746 71.2 57.2174 70.9286C57.7603 70.6429 58.3674 70.5 59.0389 70.5C59.9103 70.5 60.6889 70.7214 61.3746 71.1643C62.0603 71.6071 62.596 72.2429 62.9817 73.0714C63.3817 73.8857 63.5817 74.8786 63.5817 76.05C63.5817 77.2214 63.3817 78.2286 62.9817 79.0714C62.5817 79.9 62.0317 80.5357 61.3317 80.9786C60.646 81.4214 59.8603 81.6429 58.9746 81.6429C58.0317 81.6429 57.246 81.3786 56.6174 80.85C56.0032 80.3214 55.5817 79.6571 55.3532 78.8571L55.6317 78.4071V85.9286H52.696ZM58.1174 79.3929C58.9032 79.3929 59.5174 79.1143 59.9603 78.5571C60.4174 77.9857 60.646 77.1571 60.646 76.0714C60.646 74.9857 60.4246 74.1643 59.9817 73.6071C59.5532 73.0357 58.946 72.75 58.1603 72.75C57.6603 72.75 57.2174 72.8857 56.8317 73.1571C56.4603 73.4143 56.1674 73.7929 55.9532 74.2929C55.7389 74.7786 55.6317 75.3714 55.6317 76.0714C55.6317 76.7429 55.7317 77.3357 55.9317 77.85C56.1317 78.35 56.4174 78.7357 56.7889 79.0071C57.1746 79.2643 57.6174 79.3929 58.1174 79.3929Z" fill="white"/>
<path d="M68.1664 66.0214V78.1286C68.1664 78.6286 68.2521 78.9786 68.4236 79.1786C68.595 79.3786 68.8807 79.4786 69.2807 79.4786C69.5236 79.4786 69.7236 79.4643 69.8807 79.4357C70.0379 79.3928 70.2379 79.3357 70.4807 79.2643L70.2236 81.1929C69.9807 81.3357 69.6736 81.4429 69.3021 81.5143C68.945 81.6 68.5879 81.6429 68.2307 81.6429C67.1879 81.6429 66.4236 81.3929 65.9379 80.8929C65.4664 80.3786 65.2307 79.5643 65.2307 78.45V66.0214H68.1664Z" fill="white"/>
<path d="M72.7379 69.1714C72.1236 69.1714 71.6665 69.0429 71.3665 68.7857C71.0665 68.5143 70.9165 68.1214 70.9165 67.6071C70.9165 67.0786 71.0665 66.6857 71.3665 66.4286C71.6665 66.1571 72.1236 66.0214 72.7379 66.0214C73.3522 66.0214 73.8093 66.1571 74.1093 66.4286C74.4093 66.6857 74.5593 67.0786 74.5593 67.6071C74.5593 68.1214 74.4093 68.5143 74.1093 68.7857C73.8093 69.0429 73.3522 69.1714 72.7379 69.1714ZM74.1951 70.7143V81.4286H71.2593V70.7143H74.1951Z" fill="white"/>
<path d="M82.5571 74.5929C82.5571 73.9786 82.3785 73.5 82.0213 73.1571C81.6785 72.8143 81.2213 72.6429 80.6499 72.6429C80.1213 72.6429 79.6571 72.7786 79.2571 73.05C78.8571 73.3214 78.5642 73.7714 78.3785 74.4L75.8713 73.6286C76.1142 72.6857 76.6428 71.9286 77.4571 71.3571C78.2856 70.7857 79.3928 70.5 80.7785 70.5C81.7213 70.5 82.5428 70.65 83.2428 70.95C83.9428 71.2357 84.4856 71.6714 84.8713 72.2571C85.2713 72.8429 85.4713 73.5786 85.4713 74.4643V78.8143C85.4713 79.3571 85.7285 79.6286 86.2428 79.6286C86.4856 79.6286 86.7142 79.5929 86.9285 79.5214L86.7571 81.3428C86.3856 81.5286 85.9213 81.6214 85.3642 81.6214C84.8642 81.6214 84.4142 81.5357 84.0142 81.3643C83.6142 81.1928 83.2999 80.9357 83.0713 80.5929C82.8428 80.2357 82.7285 79.7929 82.7285 79.2643V79.1786L83.2428 79.0929C83.1571 79.6357 82.9213 80.1 82.5356 80.4857C82.1499 80.8571 81.6785 81.1428 81.1213 81.3428C80.5785 81.5428 80.0142 81.6429 79.4285 81.6429C78.6999 81.6429 78.0713 81.5357 77.5428 81.3214C77.0142 81.0929 76.6071 80.7643 76.3213 80.3357C76.0356 79.9071 75.8928 79.3786 75.8928 78.75C75.8928 77.95 76.1499 77.3 76.6642 76.8C77.1785 76.2857 77.9142 75.9357 78.8713 75.75L82.8999 74.9357L82.8785 76.7571L80.3071 77.2714C79.8213 77.3714 79.4499 77.5071 79.1928 77.6786C78.9499 77.8357 78.8285 78.1 78.8285 78.4714C78.8285 78.8286 78.9571 79.1 79.2142 79.2857C79.4856 79.4714 79.8071 79.5643 80.1785 79.5643C80.4785 79.5643 80.7713 79.5286 81.0571 79.4571C81.3428 79.3857 81.5999 79.2714 81.8285 79.1143C82.0571 78.9571 82.2356 78.7429 82.3642 78.4714C82.4928 78.2 82.5571 77.8714 82.5571 77.4857V74.5929Z" fill="white"/>
<path d="M87.8975 81.4286V70.7143H90.5332L90.7046 73.9286L90.3403 73.5857C90.5117 72.8857 90.7832 72.3143 91.1546 71.8714C91.526 71.4143 91.976 71.0714 92.5046 70.8429C93.0475 70.6143 93.6403 70.5 94.2832 70.5C95.026 70.5 95.6832 70.6429 96.2546 70.9286C96.8403 71.2143 97.2975 71.65 97.626 72.2357C97.9689 72.8071 98.1403 73.5286 98.1403 74.4V81.4286H95.2046V75.2357C95.2046 74.3214 95.026 73.6929 94.6689 73.35C94.3117 72.9929 93.8475 72.8143 93.276 72.8143C92.876 72.8143 92.4832 72.9143 92.0975 73.1143C91.726 73.3 91.4189 73.6071 91.176 74.0357C90.9475 74.4643 90.8332 75.0357 90.8332 75.75V81.4286H87.8975Z" fill="white"/>
<path d="M105.172 70.5C106.129 70.5 106.936 70.6429 107.593 70.9286C108.265 71.2 108.8 71.5786 109.2 72.0643C109.615 72.5357 109.908 73.0643 110.079 73.65L107.336 74.6357C107.193 73.9929 106.95 73.5071 106.608 73.1786C106.265 72.85 105.8 72.6857 105.215 72.6857C104.672 72.6857 104.208 72.8143 103.822 73.0714C103.436 73.3143 103.143 73.6929 102.943 74.2071C102.743 74.7071 102.643 75.3357 102.643 76.0929C102.643 76.85 102.743 77.4786 102.943 77.9786C103.158 78.4786 103.458 78.85 103.843 79.0929C104.243 79.3357 104.708 79.4571 105.236 79.4571C105.665 79.4571 106.029 79.3857 106.329 79.2429C106.629 79.0857 106.872 78.8643 107.058 78.5786C107.258 78.2928 107.393 77.95 107.465 77.55L110.122 78.4071C109.965 79.05 109.672 79.6143 109.243 80.1C108.815 80.5857 108.265 80.9643 107.593 81.2357C106.922 81.5071 106.143 81.6429 105.258 81.6429C104.158 81.6429 103.186 81.4214 102.343 80.9786C101.5 80.5357 100.85 79.9 100.393 79.0714C99.9362 78.2429 99.7076 77.2429 99.7076 76.0714C99.7076 74.9 99.9362 73.9 100.393 73.0714C100.85 72.2429 101.493 71.6071 102.322 71.1643C103.15 70.7214 104.1 70.5 105.172 70.5Z" fill="white"/>
<path d="M116.517 81.6429C115.389 81.6429 114.403 81.4214 113.56 80.9786C112.732 80.5357 112.089 79.9 111.632 79.0714C111.174 78.2429 110.946 77.2429 110.946 76.0714C110.946 74.9 111.174 73.9 111.632 73.0714C112.089 72.2429 112.724 71.6071 113.539 71.1643C114.367 70.7214 115.31 70.5 116.367 70.5C117.453 70.5 118.374 70.7214 119.132 71.1643C119.889 71.5929 120.467 72.1857 120.867 72.9429C121.267 73.6857 121.467 74.5357 121.467 75.4929C121.467 75.7786 121.46 76.05 121.446 76.3071C121.432 76.5643 121.41 76.7928 121.382 76.9928H112.832V74.9571H120.096L118.682 75.4714C118.682 74.5714 118.474 73.8786 118.06 73.3929C117.66 72.9071 117.089 72.6643 116.346 72.6643C115.803 72.6643 115.332 72.7929 114.932 73.05C114.546 73.3071 114.253 73.6929 114.053 74.2071C113.853 74.7071 113.753 75.3429 113.753 76.1143C113.753 76.8714 113.86 77.5 114.074 78C114.303 78.4857 114.617 78.85 115.017 79.0929C115.432 79.3357 115.924 79.4571 116.496 79.4571C117.124 79.4571 117.632 79.3357 118.017 79.0929C118.403 78.85 118.703 78.5143 118.917 78.0857L121.253 78.9857C121.024 79.5429 120.674 80.0214 120.203 80.4214C119.746 80.8214 119.196 81.1286 118.553 81.3428C117.924 81.5428 117.246 81.6429 116.517 81.6429Z" fill="white"/>
<path d="M129.091 81.4286V67.2857H139.698V69.6643H132.048V73.1786H138.069V75.45H132.048V79.05H139.998V81.4286H129.091Z" fill="white"/>
<path d="M143.873 70.7143L146.701 75.4071L147.494 75.3857L151.78 81.4286H148.373L145.458 76.6286L144.58 76.5429L140.444 70.7143H143.873ZM151.715 70.7143L147.58 76.4786L146.701 76.4143L143.573 81.4286H140.251L144.687 75.3429L145.523 75.45L148.373 70.7143H151.715Z" fill="white"/>
<path d="M152.837 85.9286V70.7143H155.473L155.665 74.1214L155.301 73.7357C155.43 73.1071 155.665 72.55 156.008 72.0643C156.365 71.5786 156.815 71.2 157.358 70.9286C157.901 70.6429 158.508 70.5 159.18 70.5C160.051 70.5 160.83 70.7214 161.515 71.1643C162.201 71.6071 162.737 72.2429 163.123 73.0714C163.523 73.8857 163.723 74.8786 163.723 76.05C163.723 77.2214 163.523 78.2286 163.123 79.0714C162.723 79.9 162.173 80.5357 161.473 80.9786C160.787 81.4214 160.001 81.6429 159.115 81.6429C158.173 81.6429 157.387 81.3786 156.758 80.85C156.144 80.3214 155.723 79.6571 155.494 78.8571L155.773 78.4071V85.9286H152.837ZM158.258 79.3929C159.044 79.3929 159.658 79.1143 160.101 78.5571C160.558 77.9857 160.787 77.1571 160.787 76.0714C160.787 74.9857 160.565 74.1643 160.123 73.6071C159.694 73.0357 159.087 72.75 158.301 72.75C157.801 72.75 157.358 72.8857 156.973 73.1571C156.601 73.4143 156.308 73.7929 156.094 74.2929C155.88 74.7786 155.773 75.3714 155.773 76.0714C155.773 76.7429 155.873 77.3357 156.073 77.85C156.273 78.35 156.558 78.7357 156.93 79.0071C157.315 79.2643 157.758 79.3929 158.258 79.3929Z" fill="white"/>
<path d="M170.386 81.6429C169.257 81.6429 168.272 81.4214 167.429 80.9786C166.6 80.5357 165.957 79.9 165.5 79.0714C165.043 78.2429 164.814 77.2429 164.814 76.0714C164.814 74.9 165.043 73.9 165.5 73.0714C165.957 72.2429 166.593 71.6071 167.407 71.1643C168.236 70.7214 169.179 70.5 170.236 70.5C171.322 70.5 172.243 70.7214 173 71.1643C173.757 71.5929 174.336 72.1857 174.736 72.9429C175.136 73.6857 175.336 74.5357 175.336 75.4929C175.336 75.7786 175.329 76.05 175.314 76.3071C175.3 76.5643 175.279 76.7928 175.25 76.9928H166.7V74.9571H173.964L172.55 75.4714C172.55 74.5714 172.343 73.8786 171.929 73.3929C171.529 72.9071 170.957 72.6643 170.214 72.6643C169.672 72.6643 169.2 72.7929 168.8 73.05C168.414 73.3071 168.122 73.6929 167.922 74.2071C167.722 74.7071 167.622 75.3429 167.622 76.1143C167.622 76.8714 167.729 77.5 167.943 78C168.172 78.4857 168.486 78.85 168.886 79.0929C169.3 79.3357 169.793 79.4571 170.364 79.4571C170.993 79.4571 171.5 79.3357 171.886 79.0929C172.272 78.85 172.572 78.5143 172.786 78.0857L175.122 78.9857C174.893 79.5429 174.543 80.0214 174.072 80.4214C173.614 80.8214 173.064 81.1286 172.422 81.3428C171.793 81.5428 171.114 81.6429 170.386 81.6429Z" fill="white"/>
<path d="M176.967 81.4286V70.7143H179.517L179.71 72.8143C179.995 72.0714 180.41 71.5 180.952 71.1C181.51 70.7 182.202 70.5 183.031 70.5C183.274 70.5 183.495 70.5214 183.695 70.5643C183.895 70.6071 184.06 70.6643 184.188 70.7357L183.845 73.2C183.702 73.1429 183.524 73.1 183.31 73.0714C183.11 73.0429 182.845 73.0286 182.517 73.0286C182.088 73.0286 181.674 73.1357 181.274 73.35C180.874 73.55 180.545 73.8643 180.288 74.2929C180.031 74.7071 179.902 75.2357 179.902 75.8786V81.4286H176.967Z" fill="white"/>
<path d="M188.545 67.4357V77.9357C188.545 78.45 188.674 78.8286 188.931 79.0714C189.202 79.3 189.566 79.4143 190.024 79.4143C190.395 79.4143 190.709 79.3643 190.966 79.2643C191.238 79.15 191.481 79 191.695 78.8143L192.166 80.7643C191.824 81.0357 191.395 81.25 190.881 81.4071C190.366 81.5643 189.824 81.6429 189.252 81.6429C188.538 81.6429 187.902 81.5357 187.345 81.3214C186.802 81.1071 186.374 80.7643 186.059 80.2928C185.759 79.8214 185.609 79.1929 185.609 78.4071V68.25L188.545 67.4357ZM191.974 70.7143V72.9H183.638V70.7143H191.974Z" fill="white"/>
<path d="M197.388 81.6429C196.303 81.6429 195.31 81.45 194.41 81.0643C193.524 80.6786 192.803 80.1357 192.245 79.4357L193.938 77.7214C194.281 78.2357 194.738 78.6571 195.31 78.9857C195.881 79.3143 196.56 79.4786 197.345 79.4786C197.903 79.4786 198.345 79.4 198.674 79.2429C199.017 79.0714 199.188 78.8071 199.188 78.45C199.188 78.2214 199.11 78.0286 198.953 77.8714C198.795 77.7 198.481 77.5643 198.01 77.4643L196.124 77.0786C194.881 76.8214 193.995 76.4357 193.467 75.9214C192.953 75.3929 192.695 74.7143 192.695 73.8857C192.695 73.3 192.867 72.75 193.21 72.2357C193.567 71.7214 194.095 71.3071 194.795 70.9929C195.495 70.6643 196.367 70.5 197.41 70.5C198.481 70.5 199.41 70.6714 200.195 71.0143C200.995 71.3429 201.624 71.8357 202.081 72.4929L200.324 74.2071C200.01 73.7071 199.595 73.3286 199.081 73.0714C198.581 72.8 198.053 72.6643 197.495 72.6643C197.095 72.6643 196.753 72.7071 196.467 72.7929C196.181 72.8786 195.967 73 195.824 73.1571C195.681 73.3 195.61 73.4857 195.61 73.7143C195.61 73.9429 195.71 74.1429 195.91 74.3143C196.11 74.4714 196.474 74.6071 197.003 74.7214L199.188 75.1714C200.245 75.3857 201.003 75.75 201.46 76.2643C201.917 76.7643 202.145 77.3714 202.145 78.0857C202.145 78.7714 201.96 79.3857 201.588 79.9286C201.231 80.4571 200.695 80.8786 199.981 81.1929C199.281 81.4929 198.417 81.6429 197.388 81.6429Z" fill="white"/>
<path d="M114.857 96L116.204 100.146H120.563L117.037 102.708L118.384 106.854L114.857 104.292L111.33 106.854L112.678 102.708L109.151 100.146H113.51L114.857 96Z" fill="#2A9D8F"/>
<path d="M130.286 96L131.248 98.9614H134.362L131.843 100.792L132.805 103.753L130.286 101.923L127.767 103.753L128.729 100.792L126.21 98.9614H129.324L130.286 96Z" fill="#2A9D8F"/>
<path d="M99.4286 96L100.391 98.9614H103.505L100.985 100.792L101.948 103.753L99.4286 101.923L96.9095 103.753L97.8717 100.792L95.3526 98.9614H98.4664L99.4286 96Z" fill="#2A9D8F"/>
<path d="M196.286 90.8571H213.429L196.286 101.143V90.8571Z" fill="#49646F"/>
<path d="M32.5714 90.8571H15.4286L32.5714 101.143V90.8571Z" fill="#49646F"/>
</svg>
