<svg width="115" height="60" viewBox="0 0 115 60" fill="none" xmlns="http://www.w3.org/2000/svg">
<path d="M57.4285 58.7143C73.287 58.7143 86.1428 45.8585 86.1428 30C86.1428 14.1415 73.287 1.28572 57.4285 1.28572C41.5701 1.28572 28.7142 14.1415 28.7142 30C28.7142 45.8585 41.5701 58.7143 57.4285 58.7143Z" fill="#FDF3F1"/>
<path fill-rule="evenodd" clip-rule="evenodd" d="M57.4286 2.57143C42.2802 2.57143 30 14.8516 30 30C30 45.1484 42.2802 57.4286 57.4286 57.4286C72.577 57.4286 84.8572 45.1484 84.8572 30C84.8572 14.8516 72.577 2.57143 57.4286 2.57143ZM27.4286 30C27.4286 13.4315 40.86 0 57.4286 0C73.9971 0 87.4286 13.4315 87.4286 30C87.4286 46.5685 73.9971 60 57.4286 60C40.86 60 27.4286 46.5685 27.4286 30Z" fill="#2A9D8F"/>
<path d="M98.1428 36.8571H114.429L109.286 43.7143L114.429 50.5714H98.1428V36.8571Z" fill="#203B46"/>
<path d="M16.2858 36.8571H5.10216e-05L5.14291 43.7143L5.10216e-05 50.5714H16.2858V36.8571Z" fill="#203B46"/>
<path d="M73.5064 24.8344L70.8008 20.3715L66.5389 18.2461L64.8653 19.6687L57.9983 12.8571L51.4715 18.0843L50.3166 17.3146L43.2096 22.9767L41.006 21.3591L32.5714 30H82.2197L76.4408 22.8596L73.5064 24.8344ZM36.9456 26.8034L41.0178 22.6363L42.3735 23.6067L36.9456 26.8034ZM57.5859 23.6067L52.1581 18.8599L57.8758 14.3021L57.5859 23.6067ZM65.2396 20.8175L66.6899 19.5568L69.4067 21.3027L70.2768 26.145L65.2396 20.8175ZM76.0898 27.7743L74.3438 25.5431L76.0898 24.4777L77.6404 26.3186L76.0898 27.7743Z" fill="#203B46"/>
<rect width="99" height="15.4286" transform="translate(7.71423 30)" fill="#264653"/>
<path d="M12.6567 40.7143L15.2389 33.6429H17.0067L19.5889 40.7143H18.0567L16.4389 35.9036L16.1175 34.8321H16.096L15.796 35.8821L14.1675 40.7143H12.6567ZM14.1782 38.9893V37.8964H18.0567V38.9893H14.1782Z" fill="white"/>
<path d="M20.0592 42.9643V35.3571H21.3771L21.4735 37.0607L21.2914 36.8679C21.3557 36.5536 21.4735 36.275 21.6449 36.0321C21.8235 35.7893 22.0485 35.6 22.3199 35.4643C22.5914 35.3214 22.8949 35.25 23.2307 35.25C23.6664 35.25 24.0557 35.3607 24.3985 35.5821C24.7414 35.8036 25.0092 36.1214 25.2021 36.5357C25.4021 36.9429 25.5021 37.4393 25.5021 38.025C25.5021 38.6107 25.4021 39.1143 25.2021 39.5357C25.0021 39.95 24.7271 40.2679 24.3771 40.4893C24.0342 40.7107 23.6414 40.8214 23.1985 40.8214C22.7271 40.8214 22.3342 40.6893 22.0199 40.425C21.7128 40.1607 21.5021 39.8286 21.3878 39.4286L21.5271 39.2036V42.9643H20.0592ZM22.7699 39.6964C23.1628 39.6964 23.4699 39.5571 23.6914 39.2786C23.9199 38.9929 24.0342 38.5786 24.0342 38.0357C24.0342 37.4929 23.9235 37.0821 23.7021 36.8036C23.4878 36.5179 23.1842 36.375 22.7914 36.375C22.5414 36.375 22.3199 36.4429 22.1271 36.5786C21.9414 36.7071 21.7949 36.8964 21.6878 37.1464C21.5807 37.3893 21.5271 37.6857 21.5271 38.0357C21.5271 38.3714 21.5771 38.6679 21.6771 38.925C21.7771 39.175 21.9199 39.3679 22.1057 39.5036C22.2985 39.6321 22.5199 39.6964 22.7699 39.6964Z" fill="white"/>
<path d="M26.348 42.9643V35.3571H27.6659L27.7623 37.0607L27.5801 36.8679C27.6444 36.5536 27.7623 36.275 27.9337 36.0321C28.1123 35.7893 28.3373 35.6 28.6087 35.4643C28.8801 35.3214 29.1837 35.25 29.5194 35.25C29.9551 35.25 30.3444 35.3607 30.6873 35.5821C31.0301 35.8036 31.298 36.1214 31.4909 36.5357C31.6909 36.9429 31.7909 37.4393 31.7909 38.025C31.7909 38.6107 31.6909 39.1143 31.4909 39.5357C31.2909 39.95 31.0159 40.2679 30.6659 40.4893C30.323 40.7107 29.9301 40.8214 29.4873 40.8214C29.0159 40.8214 28.623 40.6893 28.3087 40.425C28.0016 40.1607 27.7909 39.8286 27.6766 39.4286L27.8159 39.2036V42.9643H26.348ZM29.0587 39.6964C29.4516 39.6964 29.7587 39.5571 29.9801 39.2786C30.2087 38.9929 30.323 38.5786 30.323 38.0357C30.323 37.4929 30.2123 37.0821 29.9909 36.8036C29.7766 36.5179 29.473 36.375 29.0801 36.375C28.8301 36.375 28.6087 36.4429 28.4159 36.5786C28.2301 36.7071 28.0837 36.8964 27.9766 37.1464C27.8694 37.3893 27.8159 37.6857 27.8159 38.0357C27.8159 38.3714 27.8659 38.6679 27.9659 38.925C28.0659 39.175 28.2087 39.3679 28.3944 39.5036C28.5873 39.6321 28.8087 39.6964 29.0587 39.6964Z" fill="white"/>
<path d="M34.0832 33.0107V39.0643C34.0832 39.3143 34.1261 39.4893 34.2118 39.5893C34.2975 39.6893 34.4404 39.7393 34.6404 39.7393C34.7618 39.7393 34.8618 39.7321 34.9404 39.7179C35.0189 39.6964 35.1189 39.6679 35.2404 39.6321L35.1118 40.5964C34.9904 40.6679 34.8368 40.7214 34.6511 40.7571C34.4725 40.8 34.2939 40.8214 34.1154 40.8214C33.5939 40.8214 33.2118 40.6964 32.9689 40.4464C32.7332 40.1893 32.6154 39.7821 32.6154 39.225V33.0107H34.0832Z" fill="white"/>
<path d="M36.369 34.5857C36.0618 34.5857 35.8332 34.5214 35.6832 34.3929C35.5332 34.2571 35.4582 34.0607 35.4582 33.8036C35.4582 33.5393 35.5332 33.3429 35.6832 33.2143C35.8332 33.0786 36.0618 33.0107 36.369 33.0107C36.6761 33.0107 36.9047 33.0786 37.0547 33.2143C37.2047 33.3429 37.2797 33.5393 37.2797 33.8036C37.2797 34.0607 37.2047 34.2571 37.0547 34.3929C36.9047 34.5214 36.6761 34.5857 36.369 34.5857ZM37.0975 35.3571V40.7143H35.6297V35.3571H37.0975Z" fill="white"/>
<path d="M41.2785 37.2964C41.2785 36.9893 41.1892 36.75 41.0107 36.5786C40.8392 36.4071 40.6107 36.3214 40.325 36.3214C40.0607 36.3214 39.8285 36.3893 39.6285 36.525C39.4285 36.6607 39.2821 36.8857 39.1892 37.2L37.9357 36.8143C38.0571 36.3429 38.3214 35.9643 38.7285 35.6786C39.1428 35.3929 39.6964 35.25 40.3892 35.25C40.8607 35.25 41.2714 35.325 41.6214 35.475C41.9714 35.6179 42.2428 35.8357 42.4357 36.1286C42.6357 36.4214 42.7357 36.7893 42.7357 37.2321V39.4071C42.7357 39.6786 42.8642 39.8143 43.1214 39.8143C43.2428 39.8143 43.3571 39.7964 43.4642 39.7607L43.3785 40.6714C43.1928 40.7643 42.9607 40.8107 42.6821 40.8107C42.4321 40.8107 42.2071 40.7679 42.0071 40.6821C41.8071 40.5964 41.65 40.4679 41.5357 40.2964C41.4214 40.1179 41.3642 39.8964 41.3642 39.6321V39.5893L41.6214 39.5464C41.5785 39.8179 41.4607 40.05 41.2678 40.2429C41.075 40.4286 40.8392 40.5714 40.5607 40.6714C40.2892 40.7714 40.0071 40.8214 39.7142 40.8214C39.35 40.8214 39.0357 40.7679 38.7714 40.6607C38.5071 40.5464 38.3035 40.3821 38.1607 40.1679C38.0178 39.9536 37.9464 39.6893 37.9464 39.375C37.9464 38.975 38.075 38.65 38.3321 38.4C38.5892 38.1429 38.9571 37.9679 39.4357 37.875L41.45 37.4679L41.4392 38.3786L40.1535 38.6357C39.9107 38.6857 39.725 38.7536 39.5964 38.8393C39.475 38.9179 39.4142 39.05 39.4142 39.2357C39.4142 39.4143 39.4785 39.55 39.6071 39.6429C39.7428 39.7357 39.9035 39.7821 40.0892 39.7821C40.2392 39.7821 40.3857 39.7643 40.5285 39.7286C40.6714 39.6929 40.8 39.6357 40.9142 39.5571C41.0285 39.4786 41.1178 39.3714 41.1821 39.2357C41.2464 39.1 41.2785 38.9357 41.2785 38.7429V37.2964Z" fill="white"/>
<path d="M43.9487 40.7143V35.3571H45.2666L45.3523 36.9643L45.1702 36.7929C45.2559 36.4429 45.3916 36.1571 45.5773 35.9357C45.763 35.7071 45.988 35.5357 46.2523 35.4214C46.5237 35.3071 46.8202 35.25 47.1416 35.25C47.513 35.25 47.8416 35.3214 48.1273 35.4643C48.4202 35.6071 48.6487 35.825 48.813 36.1179C48.9844 36.4036 49.0702 36.7643 49.0702 37.2V40.7143H47.6023V37.6179C47.6023 37.1607 47.513 36.8464 47.3344 36.675C47.1559 36.4964 46.9237 36.4071 46.638 36.4071C46.438 36.4071 46.2416 36.4571 46.0487 36.5571C45.863 36.65 45.7094 36.8036 45.588 37.0179C45.4737 37.2321 45.4166 37.5179 45.4166 37.875V40.7143H43.9487Z" fill="white"/>
<path d="M52.5859 35.25C53.0645 35.25 53.4681 35.3214 53.7967 35.4643C54.1324 35.6 54.4002 35.7893 54.6002 36.0321C54.8074 36.2679 54.9538 36.5321 55.0395 36.825L53.6681 37.3179C53.5967 36.9964 53.4752 36.7536 53.3038 36.5893C53.1324 36.425 52.9002 36.3429 52.6074 36.3429C52.336 36.3429 52.1038 36.4071 51.911 36.5357C51.7181 36.6571 51.5717 36.8464 51.4717 37.1036C51.3717 37.3536 51.3217 37.6679 51.3217 38.0464C51.3217 38.425 51.3717 38.7393 51.4717 38.9893C51.5788 39.2393 51.7288 39.425 51.9217 39.5464C52.1217 39.6679 52.3538 39.7286 52.6181 39.7286C52.8324 39.7286 53.0145 39.6929 53.1645 39.6214C53.3145 39.5429 53.436 39.4321 53.5288 39.2893C53.6288 39.1464 53.6967 38.975 53.7324 38.775L55.061 39.2036C54.9824 39.525 54.836 39.8071 54.6217 40.05C54.4074 40.2929 54.1324 40.4821 53.7967 40.6179C53.461 40.7536 53.0717 40.8214 52.6288 40.8214C52.0788 40.8214 51.5931 40.7107 51.1717 40.4893C50.7502 40.2679 50.4252 39.95 50.1967 39.5357C49.9681 39.1214 49.8538 38.6214 49.8538 38.0357C49.8538 37.45 49.9681 36.95 50.1967 36.5357C50.4252 36.1214 50.7467 35.8036 51.161 35.5821C51.5752 35.3607 52.0502 35.25 52.5859 35.25Z" fill="white"/>
<path d="M58.2587 40.8214C57.6944 40.8214 57.2015 40.7107 56.7801 40.4893C56.3658 40.2679 56.0444 39.95 55.8158 39.5357C55.5872 39.1214 55.4729 38.6214 55.4729 38.0357C55.4729 37.45 55.5872 36.95 55.8158 36.5357C56.0444 36.1214 56.3622 35.8036 56.7694 35.5821C57.1837 35.3607 57.6551 35.25 58.1837 35.25C58.7265 35.25 59.1872 35.3607 59.5658 35.5821C59.9444 35.7964 60.2337 36.0929 60.4337 36.4714C60.6337 36.8429 60.7337 37.2679 60.7337 37.7464C60.7337 37.8893 60.7301 38.025 60.7229 38.1536C60.7158 38.2821 60.7051 38.3964 60.6908 38.4964H56.4158V37.4786H60.0479L59.3408 37.7357C59.3408 37.2857 59.2372 36.9393 59.0301 36.6964C58.8301 36.4536 58.5444 36.3321 58.1729 36.3321C57.9015 36.3321 57.6658 36.3964 57.4658 36.525C57.2729 36.6536 57.1265 36.8464 57.0265 37.1036C56.9265 37.3536 56.8765 37.6714 56.8765 38.0571C56.8765 38.4357 56.9301 38.75 57.0372 39C57.1515 39.2429 57.3087 39.425 57.5087 39.5464C57.7158 39.6679 57.9622 39.7286 58.2479 39.7286C58.5622 39.7286 58.8158 39.6679 59.0087 39.5464C59.2015 39.425 59.3515 39.2571 59.4587 39.0429L60.6265 39.4929C60.5122 39.7714 60.3372 40.0107 60.1015 40.2107C59.8729 40.4107 59.5979 40.5643 59.2765 40.6714C58.9622 40.7714 58.6229 40.8214 58.2587 40.8214Z" fill="white"/>
<path d="M64.5454 40.7143V33.6429H69.849V34.8321H66.024V36.5893H69.0347V37.725H66.024V39.525H69.999V40.7143H64.5454Z" fill="white"/>
<path d="M71.9363 35.3571L73.3506 37.7036L73.747 37.6929L75.8899 40.7143H74.1863L72.7291 38.3143L72.2899 38.2714L70.222 35.3571H71.9363ZM75.8577 35.3571L73.7899 38.2393L73.3506 38.2071L71.7863 40.7143H70.1256L72.3434 37.6714L72.7613 37.725L74.1863 35.3571H75.8577Z" fill="white"/>
<path d="M76.4185 42.9643V35.3571H77.7363L77.8327 37.0607L77.6506 36.8679C77.7149 36.5536 77.8327 36.275 78.0042 36.0321C78.1827 35.7893 78.4077 35.6 78.6792 35.4643C78.9506 35.3214 79.2542 35.25 79.5899 35.25C80.0256 35.25 80.4149 35.3607 80.7577 35.5821C81.1006 35.8036 81.3685 36.1214 81.5613 36.5357C81.7613 36.9429 81.8613 37.4393 81.8613 38.025C81.8613 38.6107 81.7613 39.1143 81.5613 39.5357C81.3613 39.95 81.0863 40.2679 80.7363 40.4893C80.3935 40.7107 80.0006 40.8214 79.5577 40.8214C79.0863 40.8214 78.6935 40.6893 78.3792 40.425C78.072 40.1607 77.8613 39.8286 77.747 39.4286L77.8863 39.2036V42.9643H76.4185ZM79.1292 39.6964C79.522 39.6964 79.8292 39.5571 80.0506 39.2786C80.2792 38.9929 80.3935 38.5786 80.3935 38.0357C80.3935 37.4929 80.2827 37.0821 80.0613 36.8036C79.847 36.5179 79.5435 36.375 79.1506 36.375C78.9006 36.375 78.6792 36.4429 78.4863 36.5786C78.3006 36.7071 78.1542 36.8964 78.047 37.1464C77.9399 37.3893 77.8863 37.6857 77.8863 38.0357C77.8863 38.3714 77.9363 38.6679 78.0363 38.925C78.1363 39.175 78.2792 39.3679 78.4649 39.5036C78.6577 39.6321 78.8792 39.6964 79.1292 39.6964Z" fill="white"/>
<path d="M85.193 40.8214C84.6287 40.8214 84.1358 40.7107 83.7144 40.4893C83.3001 40.2679 82.9787 39.95 82.7501 39.5357C82.5215 39.1214 82.4072 38.6214 82.4072 38.0357C82.4072 37.45 82.5215 36.95 82.7501 36.5357C82.9787 36.1214 83.2965 35.8036 83.7037 35.5821C84.118 35.3607 84.5894 35.25 85.118 35.25C85.6608 35.25 86.1215 35.3607 86.5001 35.5821C86.8787 35.7964 87.168 36.0929 87.368 36.4714C87.568 36.8429 87.668 37.2679 87.668 37.7464C87.668 37.8893 87.6644 38.025 87.6572 38.1536C87.6501 38.2821 87.6394 38.3964 87.6251 38.4964H83.3501V37.4786H86.9822L86.2751 37.7357C86.2751 37.2857 86.1715 36.9393 85.9644 36.6964C85.7644 36.4536 85.4787 36.3321 85.1072 36.3321C84.8358 36.3321 84.6001 36.3964 84.4001 36.525C84.2072 36.6536 84.0608 36.8464 83.9608 37.1036C83.8608 37.3536 83.8108 37.6714 83.8108 38.0571C83.8108 38.4357 83.8644 38.75 83.9715 39C84.0858 39.2429 84.243 39.425 84.443 39.5464C84.6501 39.6679 84.8965 39.7286 85.1822 39.7286C85.4965 39.7286 85.7501 39.6679 85.943 39.5464C86.1358 39.425 86.2858 39.2571 86.393 39.0429L87.5608 39.4929C87.4465 39.7714 87.2715 40.0107 87.0358 40.2107C86.8072 40.4107 86.5322 40.5643 86.2108 40.6714C85.8965 40.7714 85.5572 40.8214 85.193 40.8214Z" fill="white"/>
<path d="M88.4833 40.7143V35.3571H89.7583L89.8548 36.4071C89.9976 36.0357 90.2048 35.75 90.4762 35.55C90.7548 35.35 91.1012 35.25 91.5155 35.25C91.6369 35.25 91.7476 35.2607 91.8476 35.2821C91.9476 35.3036 92.0298 35.3321 92.094 35.3679L91.9226 36.6C91.8512 36.5714 91.7619 36.55 91.6548 36.5357C91.5548 36.5214 91.4226 36.5143 91.2583 36.5143C91.044 36.5143 90.8369 36.5679 90.6369 36.675C90.4369 36.775 90.2726 36.9321 90.144 37.1464C90.0155 37.3536 89.9512 37.6179 89.9512 37.9393V40.7143H88.4833Z" fill="white"/>
<path d="M94.2725 33.7179V38.9679C94.2725 39.225 94.3368 39.4143 94.4653 39.5357C94.601 39.65 94.7832 39.7071 95.0118 39.7071C95.1975 39.7071 95.3546 39.6821 95.4832 39.6321C95.6189 39.575 95.7403 39.5 95.8475 39.4071L96.0832 40.3821C95.9118 40.5179 95.6975 40.625 95.4403 40.7036C95.1832 40.7821 94.9118 40.8214 94.626 40.8214C94.2689 40.8214 93.951 40.7679 93.6725 40.6607C93.401 40.5536 93.1868 40.3821 93.0296 40.1464C92.8796 39.9107 92.8046 39.5964 92.8046 39.2036V34.125L94.2725 33.7179ZM95.9868 35.3571V36.45H91.8189V35.3571H95.9868Z" fill="white"/>
<path d="M98.6941 40.8214C98.1513 40.8214 97.6548 40.725 97.2048 40.5321C96.762 40.3393 96.4013 40.0679 96.1227 39.7179L96.9691 38.8607C97.1406 39.1179 97.3691 39.3286 97.6548 39.4929C97.9406 39.6571 98.2798 39.7393 98.6727 39.7393C98.9513 39.7393 99.1727 39.7 99.337 39.6214C99.5084 39.5357 99.5941 39.4036 99.5941 39.225C99.5941 39.1107 99.5548 39.0143 99.4763 38.9357C99.3977 38.85 99.2406 38.7821 99.0048 38.7321L98.062 38.5393C97.4406 38.4107 96.9977 38.2179 96.7334 37.9607C96.4763 37.6964 96.3477 37.3571 96.3477 36.9429C96.3477 36.65 96.4334 36.375 96.6048 36.1179C96.7834 35.8607 97.0477 35.6536 97.3977 35.4964C97.7477 35.3321 98.1834 35.25 98.7048 35.25C99.2406 35.25 99.7048 35.3357 100.098 35.5071C100.498 35.6714 100.812 35.9179 101.041 36.2464L100.162 37.1036C100.005 36.8536 99.7977 36.6643 99.5406 36.5357C99.2906 36.4 99.0263 36.3321 98.7477 36.3321C98.5477 36.3321 98.3763 36.3536 98.2334 36.3964C98.0906 36.4393 97.9834 36.5 97.912 36.5786C97.8406 36.65 97.8048 36.7429 97.8048 36.8571C97.8048 36.9714 97.8548 37.0714 97.9548 37.1571C98.0548 37.2357 98.237 37.3036 98.5013 37.3607L99.5941 37.5857C100.123 37.6929 100.501 37.875 100.73 38.1321C100.958 38.3821 101.073 38.6857 101.073 39.0429C101.073 39.3857 100.98 39.6929 100.794 39.9643C100.616 40.2286 100.348 40.4393 99.9906 40.5964C99.6406 40.7464 99.2084 40.8214 98.6941 40.8214Z" fill="white"/>
<path d="M57.4286 48L58.1021 50.0729H60.2818L58.5184 51.3541L59.1919 53.4271L57.4286 52.1459L55.6652 53.4271L56.3388 51.3541L54.5754 50.0729H56.755L57.4286 48Z" fill="#2A9D8F"/>
<path d="M65.1429 48L65.624 49.4807H67.1808L65.9213 50.3958L66.4024 51.8765L65.1429 50.9614L63.8833 51.8765L64.3644 50.3958L63.1049 49.4807H64.6618L65.1429 48Z" fill="#2A9D8F"/>
<path d="M49.7143 48L50.1954 49.4807H51.7522L50.4927 50.3958L50.9738 51.8765L49.7143 50.9614L48.4547 51.8765L48.9358 50.3958L47.6763 49.4807H49.2332L49.7143 48Z" fill="#2A9D8F"/>
<path d="M98.1428 45.4286H106.714L98.1428 50.5714V45.4286Z" fill="#49646F"/>
<path d="M16.2858 45.4286H7.71434L16.2858 50.5714V45.4286Z" fill="#49646F"/>
</svg>
