<svg width="47" height="24" viewBox="0 0 47 24" fill="none" xmlns="http://www.w3.org/2000/svg">
<path d="M23.5858 23.4857C29.9292 23.4857 35.0715 18.3434 35.0715 12C35.0715 5.65661 29.9292 0.514282 23.5858 0.514282C17.2424 0.514282 12.1001 5.65661 12.1001 12C12.1001 18.3434 17.2424 23.4857 23.5858 23.4857Z" fill="#FDF3F1"/>
<path fill-rule="evenodd" clip-rule="evenodd" d="M23.5854 1.02857C17.5261 1.02857 12.614 5.94065 12.614 12C12.614 18.0594 17.5261 22.9714 23.5854 22.9714C29.6448 22.9714 34.5569 18.0594 34.5569 12C34.5569 5.94065 29.6448 1.02857 23.5854 1.02857ZM11.5854 12C11.5854 5.37258 16.958 0 23.5854 0C30.2129 0 35.5854 5.37258 35.5854 12C35.5854 18.6274 30.2129 24 23.5854 24C16.958 24 11.5854 18.6274 11.5854 12Z" fill="#2A9D8F"/>
<path d="M39.8716 14.7429H46.3859L44.3287 17.4857L46.3859 20.2286H39.8716V14.7429Z" fill="#203B46"/>
<path d="M7.12842 14.7429H0.614133L2.67128 17.4857L0.614133 20.2286H7.12842V14.7429Z" fill="#203B46"/>
<path d="M30.0171 9.93375L28.9348 8.14861L27.23 7.29845L26.5606 7.86749L23.8138 5.14285L21.2031 7.2337L20.7411 6.92583L17.8984 9.19068L17.0169 8.54365L13.6431 12H33.5024L31.1908 9.14382L30.0171 9.93375ZM15.3928 10.7214L17.0216 9.05451L17.5639 9.44269L15.3928 10.7214ZM23.6489 9.44269L21.4777 7.54395L23.7648 5.72082L23.6489 9.44269ZM26.7103 8.327L27.2905 7.82271L28.3772 8.52109L28.7252 10.458L26.7103 8.327ZM31.0504 11.1097L30.352 10.2172L31.0504 9.79107L31.6707 10.5274L31.0504 11.1097Z" fill="#203B46"/>
<rect width="39.6" height="6.17143" transform="translate(3.7002 12)" fill="#264653"/>
<path d="M5.67725 16.2857L6.7101 13.4571H7.41725L8.4501 16.2857H7.83725L7.1901 14.3614L7.06153 13.9329H7.05296L6.93296 14.3529L6.28153 16.2857H5.67725ZM6.28582 15.5957V15.1586H7.83725V15.5957H6.28582Z" fill="white"/>
<path d="M8.63824 17.1857V14.1429H9.16538L9.20395 14.8243L9.1311 14.7471C9.15681 14.6214 9.20395 14.51 9.27253 14.4129C9.34395 14.3157 9.43395 14.24 9.54253 14.1857C9.6511 14.1286 9.77253 14.1 9.90681 14.1C10.0811 14.1 10.2368 14.1443 10.374 14.2329C10.5111 14.3214 10.6182 14.4486 10.6954 14.6143C10.7754 14.7771 10.8154 14.9757 10.8154 15.21C10.8154 15.4443 10.7754 15.6457 10.6954 15.8143C10.6154 15.98 10.5054 16.1071 10.3654 16.1957C10.2282 16.2843 10.0711 16.3286 9.89395 16.3286C9.70538 16.3286 9.54824 16.2757 9.42253 16.17C9.29967 16.0643 9.21538 15.9314 9.16967 15.7714L9.22538 15.6814V17.1857H8.63824ZM9.72253 15.8786C9.87967 15.8786 10.0025 15.8229 10.0911 15.7114C10.1825 15.5971 10.2282 15.4314 10.2282 15.2143C10.2282 14.9971 10.184 14.8329 10.0954 14.7214C10.0097 14.6071 9.88824 14.55 9.7311 14.55C9.6311 14.55 9.54253 14.5771 9.46538 14.6314C9.3911 14.6829 9.33253 14.7586 9.28967 14.8586C9.24681 14.9557 9.22538 15.0743 9.22538 15.2143C9.22538 15.3486 9.24538 15.4671 9.28538 15.57C9.32538 15.67 9.38253 15.7471 9.45681 15.8014C9.53395 15.8529 9.62253 15.8786 9.72253 15.8786Z" fill="white"/>
<path d="M11.1538 17.1857V14.1429H11.6809L11.7195 14.8243L11.6466 14.7471C11.6723 14.6214 11.7195 14.51 11.788 14.4129C11.8595 14.3157 11.9495 14.24 12.058 14.1857C12.1666 14.1286 12.288 14.1 12.4223 14.1C12.5966 14.1 12.7523 14.1443 12.8895 14.2329C13.0266 14.3214 13.1338 14.4486 13.2109 14.6143C13.2909 14.7771 13.3309 14.9757 13.3309 15.21C13.3309 15.4443 13.2909 15.6457 13.2109 15.8143C13.1309 15.98 13.0209 16.1071 12.8809 16.1957C12.7438 16.2843 12.5866 16.3286 12.4095 16.3286C12.2209 16.3286 12.0638 16.2757 11.938 16.17C11.8152 16.0643 11.7309 15.9314 11.6852 15.7714L11.7409 15.6814V17.1857H11.1538ZM12.238 15.8786C12.3952 15.8786 12.518 15.8229 12.6066 15.7114C12.698 15.5971 12.7438 15.4314 12.7438 15.2143C12.7438 14.9971 12.6995 14.8329 12.6109 14.7214C12.5252 14.6071 12.4038 14.55 12.2466 14.55C12.1466 14.55 12.058 14.5771 11.9809 14.6314C11.9066 14.6829 11.848 14.7586 11.8052 14.8586C11.7623 14.9557 11.7409 15.0743 11.7409 15.2143C11.7409 15.3486 11.7609 15.4671 11.8009 15.57C11.8409 15.67 11.898 15.7471 11.9723 15.8014C12.0495 15.8529 12.138 15.8786 12.238 15.8786Z" fill="white"/>
<path d="M14.2478 13.2043V15.6257C14.2478 15.7257 14.265 15.7957 14.2993 15.8357C14.3336 15.8757 14.3907 15.8957 14.4707 15.8957C14.5193 15.8957 14.5593 15.8929 14.5907 15.8871C14.6221 15.8786 14.6621 15.8671 14.7107 15.8529L14.6593 16.2386C14.6107 16.2671 14.5493 16.2886 14.475 16.3029C14.4036 16.32 14.3321 16.3286 14.2607 16.3286C14.0521 16.3286 13.8993 16.2786 13.8021 16.1786C13.7078 16.0757 13.6607 15.9129 13.6607 15.69V13.2043H14.2478Z" fill="white"/>
<path d="M15.1621 13.8343C15.0393 13.8343 14.9478 13.8086 14.8878 13.7571C14.8278 13.7029 14.7978 13.6243 14.7978 13.5214C14.7978 13.4157 14.8278 13.3371 14.8878 13.2857C14.9478 13.2314 15.0393 13.2043 15.1621 13.2043C15.285 13.2043 15.3764 13.2314 15.4364 13.2857C15.4964 13.3371 15.5264 13.4157 15.5264 13.5214C15.5264 13.6243 15.4964 13.7029 15.4364 13.7571C15.3764 13.8086 15.285 13.8343 15.1621 13.8343ZM15.4536 14.1429V16.2857H14.8664V14.1429H15.4536Z" fill="white"/>
<path d="M17.126 14.9186C17.126 14.7957 17.0902 14.7 17.0188 14.6314C16.9502 14.5629 16.8588 14.5286 16.7445 14.5286C16.6388 14.5286 16.546 14.5557 16.466 14.61C16.386 14.6643 16.3274 14.7543 16.2902 14.88L15.7888 14.7257C15.8374 14.5371 15.9431 14.3857 16.106 14.2714C16.2717 14.1571 16.4931 14.1 16.7702 14.1C16.9588 14.1 17.1231 14.13 17.2631 14.19C17.4031 14.2471 17.5117 14.3343 17.5888 14.4514C17.6688 14.5686 17.7088 14.7157 17.7088 14.8929V15.7629C17.7088 15.8714 17.7602 15.9257 17.8631 15.9257C17.9117 15.9257 17.9574 15.9186 18.0002 15.9043L17.966 16.2686C17.8917 16.3057 17.7988 16.3243 17.6874 16.3243C17.5874 16.3243 17.4974 16.3071 17.4174 16.2729C17.3374 16.2386 17.2745 16.1871 17.2288 16.1186C17.1831 16.0471 17.1602 15.9586 17.1602 15.8529V15.8357L17.2631 15.8186C17.246 15.9271 17.1988 16.02 17.1217 16.0971C17.0445 16.1714 16.9502 16.2286 16.8388 16.2686C16.7302 16.3086 16.6174 16.3286 16.5002 16.3286C16.3545 16.3286 16.2288 16.3071 16.1231 16.2643C16.0174 16.2186 15.936 16.1529 15.8788 16.0671C15.8217 15.9814 15.7931 15.8757 15.7931 15.75C15.7931 15.59 15.8445 15.46 15.9474 15.36C16.0502 15.2571 16.1974 15.1871 16.3888 15.15L17.1945 14.9871L17.1902 15.3514L16.676 15.4543C16.5788 15.4743 16.5045 15.5014 16.4531 15.5357C16.4045 15.5671 16.3802 15.62 16.3802 15.6943C16.3802 15.7657 16.406 15.82 16.4574 15.8571C16.5117 15.8943 16.576 15.9129 16.6502 15.9129C16.7102 15.9129 16.7688 15.9057 16.826 15.8914C16.8831 15.8771 16.9345 15.8543 16.9802 15.8229C17.026 15.7914 17.0617 15.7486 17.0874 15.6943C17.1131 15.64 17.126 15.5743 17.126 15.4971V14.9186Z" fill="white"/>
<path d="M18.194 16.2857V14.1429H18.7212L18.7555 14.7857L18.6826 14.7171C18.7169 14.5771 18.7712 14.4629 18.8455 14.3743C18.9198 14.2829 19.0098 14.2143 19.1155 14.1686C19.224 14.1229 19.3426 14.1 19.4712 14.1C19.6198 14.1 19.7512 14.1286 19.8655 14.1857C19.9826 14.2429 20.074 14.33 20.1398 14.4471C20.2083 14.5614 20.2426 14.7057 20.2426 14.88V16.2857H19.6555V15.0471C19.6555 14.8643 19.6198 14.7386 19.5483 14.67C19.4769 14.5986 19.384 14.5629 19.2698 14.5629C19.1898 14.5629 19.1112 14.5829 19.034 14.6229C18.9598 14.66 18.8983 14.7214 18.8498 14.8071C18.804 14.8929 18.7812 15.0071 18.7812 15.15V16.2857H18.194Z" fill="white"/>
<path d="M21.6489 14.1C21.8404 14.1 22.0018 14.1286 22.1332 14.1857C22.2675 14.24 22.3746 14.3157 22.4546 14.4129C22.5375 14.5071 22.5961 14.6129 22.6304 14.73L22.0818 14.9271C22.0532 14.7986 22.0046 14.7014 21.9361 14.6357C21.8675 14.57 21.7746 14.5371 21.6575 14.5371C21.5489 14.5371 21.4561 14.5629 21.3789 14.6143C21.3018 14.6629 21.2432 14.7386 21.2032 14.8414C21.1632 14.9414 21.1432 15.0671 21.1432 15.2186C21.1432 15.37 21.1632 15.4957 21.2032 15.5957C21.2461 15.6957 21.3061 15.77 21.3832 15.8186C21.4632 15.8671 21.5561 15.8914 21.6618 15.8914C21.7475 15.8914 21.8204 15.8771 21.8804 15.8486C21.9404 15.8171 21.9889 15.7729 22.0261 15.7157C22.0661 15.6586 22.0932 15.59 22.1075 15.51L22.6389 15.6814C22.6075 15.81 22.5489 15.9229 22.4632 16.02C22.3775 16.1171 22.2675 16.1929 22.1332 16.2471C21.9989 16.3014 21.8432 16.3286 21.6661 16.3286C21.4461 16.3286 21.2518 16.2843 21.0832 16.1957C20.9146 16.1071 20.7846 15.98 20.6932 15.8143C20.6018 15.6486 20.5561 15.4486 20.5561 15.2143C20.5561 14.98 20.6018 14.78 20.6932 14.6143C20.7846 14.4486 20.9132 14.3214 21.0789 14.2329C21.2446 14.1443 21.4346 14.1 21.6489 14.1Z" fill="white"/>
<path d="M23.918 16.3286C23.6923 16.3286 23.4952 16.2843 23.3266 16.1957C23.1609 16.1071 23.0323 15.98 22.9409 15.8143C22.8494 15.6486 22.8037 15.4486 22.8037 15.2143C22.8037 14.98 22.8494 14.78 22.9409 14.6143C23.0323 14.4486 23.1594 14.3214 23.3223 14.2329C23.488 14.1443 23.6766 14.1 23.888 14.1C24.1052 14.1 24.2894 14.1443 24.4409 14.2329C24.5923 14.3186 24.708 14.4371 24.788 14.5886C24.868 14.7371 24.908 14.9071 24.908 15.0986C24.908 15.1557 24.9066 15.21 24.9037 15.2614C24.9009 15.3129 24.8966 15.3586 24.8909 15.3986H23.1809V14.9914H24.6337L24.3509 15.0943C24.3509 14.9143 24.3094 14.7757 24.2266 14.6786C24.1466 14.5814 24.0323 14.5329 23.8837 14.5329C23.7752 14.5329 23.6809 14.5586 23.6009 14.61C23.5237 14.6614 23.4652 14.7386 23.4252 14.8414C23.3852 14.9414 23.3652 15.0686 23.3652 15.2229C23.3652 15.3743 23.3866 15.5 23.4294 15.6C23.4752 15.6971 23.538 15.77 23.618 15.8186C23.7009 15.8671 23.7994 15.8914 23.9137 15.8914C24.0394 15.8914 24.1409 15.8671 24.218 15.8186C24.2952 15.77 24.3552 15.7029 24.398 15.6171L24.8652 15.7971C24.8194 15.9086 24.7494 16.0043 24.6552 16.0843C24.5637 16.1643 24.4537 16.2257 24.3252 16.2686C24.1994 16.3086 24.0637 16.3286 23.918 16.3286Z" fill="white"/>
<path d="M26.4327 16.2857V13.4571H28.5542V13.9329H27.0242V14.6357H28.2284V15.09H27.0242V15.81H28.6142V16.2857H26.4327Z" fill="white"/>
<path d="M29.3891 14.1429L29.9548 15.0814L30.1134 15.0771L30.9705 16.2857H30.2891L29.7062 15.3257L29.5305 15.3086L28.7034 14.1429H29.3891ZM30.9576 14.1429L30.1305 15.2957L29.9548 15.2829L29.3291 16.2857H28.6648L29.5519 15.0686L29.7191 15.09L30.2891 14.1429H30.9576Z" fill="white"/>
<path d="M31.1819 17.1857V14.1429H31.7091L31.7476 14.8243L31.6748 14.7471C31.7005 14.6214 31.7476 14.51 31.8162 14.4129C31.8876 14.3157 31.9776 14.24 32.0862 14.1857C32.1948 14.1286 32.3162 14.1 32.4505 14.1C32.6248 14.1 32.7805 14.1443 32.9176 14.2329C33.0548 14.3214 33.1619 14.4486 33.2391 14.6143C33.3191 14.7771 33.3591 14.9757 33.3591 15.21C33.3591 15.4443 33.3191 15.6457 33.2391 15.8143C33.1591 15.98 33.0491 16.1071 32.9091 16.1957C32.7719 16.2843 32.6148 16.3286 32.4376 16.3286C32.2491 16.3286 32.0919 16.2757 31.9662 16.17C31.8434 16.0643 31.7591 15.9314 31.7134 15.7714L31.7691 15.6814V17.1857H31.1819ZM32.2662 15.8786C32.4234 15.8786 32.5462 15.8229 32.6348 15.7114C32.7262 15.5971 32.7719 15.4314 32.7719 15.2143C32.7719 14.9971 32.7276 14.8329 32.6391 14.7214C32.5534 14.6071 32.4319 14.55 32.2748 14.55C32.1748 14.55 32.0862 14.5771 32.0091 14.6314C31.9348 14.6829 31.8762 14.7586 31.8334 14.8586C31.7905 14.9557 31.7691 15.0743 31.7691 15.2143C31.7691 15.3486 31.7891 15.4671 31.8291 15.57C31.8691 15.67 31.9262 15.7471 32.0005 15.8014C32.0776 15.8529 32.1662 15.8786 32.2662 15.8786Z" fill="white"/>
<path d="M34.6917 16.3286C34.466 16.3286 34.2689 16.2843 34.1003 16.1957C33.9346 16.1071 33.806 15.98 33.7146 15.8143C33.6232 15.6486 33.5774 15.4486 33.5774 15.2143C33.5774 14.98 33.6232 14.78 33.7146 14.6143C33.806 14.4486 33.9332 14.3214 34.096 14.2329C34.2617 14.1443 34.4503 14.1 34.6617 14.1C34.8789 14.1 35.0632 14.1443 35.2146 14.2329C35.366 14.3186 35.4817 14.4371 35.5617 14.5886C35.6417 14.7371 35.6817 14.9071 35.6817 15.0986C35.6817 15.1557 35.6803 15.21 35.6774 15.2614C35.6746 15.3129 35.6703 15.3586 35.6646 15.3986H33.9546V14.9914H35.4074L35.1246 15.0943C35.1246 14.9143 35.0832 14.7757 35.0003 14.6786C34.9203 14.5814 34.806 14.5329 34.6574 14.5329C34.5489 14.5329 34.4546 14.5586 34.3746 14.61C34.2974 14.6614 34.2389 14.7386 34.1989 14.8414C34.1589 14.9414 34.1389 15.0686 34.1389 15.2229C34.1389 15.3743 34.1603 15.5 34.2032 15.6C34.2489 15.6971 34.3117 15.77 34.3917 15.8186C34.4746 15.8671 34.5732 15.8914 34.6874 15.8914C34.8132 15.8914 34.9146 15.8671 34.9917 15.8186C35.0689 15.77 35.1289 15.7029 35.1717 15.6171L35.6389 15.7971C35.5932 15.9086 35.5232 16.0043 35.4289 16.0843C35.3374 16.1643 35.2274 16.2257 35.0989 16.2686C34.9732 16.3086 34.8374 16.3286 34.6917 16.3286Z" fill="white"/>
<path d="M36.0079 16.2857V14.1429H36.5179L36.5565 14.5629C36.6136 14.4143 36.6965 14.3 36.805 14.22C36.9165 14.14 37.055 14.1 37.2207 14.1C37.2693 14.1 37.3136 14.1043 37.3536 14.1129C37.3936 14.1214 37.4265 14.1329 37.4522 14.1471L37.3836 14.64C37.355 14.6286 37.3193 14.62 37.2765 14.6143C37.2365 14.6086 37.1836 14.6057 37.1179 14.6057C37.0322 14.6057 36.9493 14.6271 36.8693 14.67C36.7893 14.71 36.7236 14.7729 36.6722 14.8586C36.6207 14.9414 36.595 15.0471 36.595 15.1757V16.2857H36.0079Z" fill="white"/>
<path d="M38.3235 13.4871V15.5871C38.3235 15.69 38.3493 15.7657 38.4007 15.8143C38.455 15.86 38.5278 15.8829 38.6193 15.8829C38.6935 15.8829 38.7564 15.8729 38.8078 15.8529C38.8621 15.83 38.9107 15.8 38.9535 15.7629L39.0478 16.1529C38.9793 16.2071 38.8935 16.25 38.7907 16.2814C38.6878 16.3129 38.5793 16.3286 38.465 16.3286C38.3221 16.3286 38.195 16.3071 38.0835 16.2643C37.975 16.2214 37.8893 16.1529 37.8264 16.0586C37.7664 15.9643 37.7364 15.8386 37.7364 15.6814V13.65L38.3235 13.4871ZM39.0093 14.1429V14.58H37.3421V14.1429H39.0093Z" fill="white"/>
<path d="M40.0922 16.3286C39.8751 16.3286 39.6765 16.29 39.4965 16.2129C39.3193 16.1357 39.1751 16.0271 39.0636 15.8871L39.4022 15.5443C39.4708 15.6471 39.5622 15.7314 39.6765 15.7971C39.7908 15.8629 39.9265 15.8957 40.0836 15.8957C40.1951 15.8957 40.2836 15.88 40.3493 15.8486C40.4179 15.8143 40.4522 15.7614 40.4522 15.69C40.4522 15.6443 40.4365 15.6057 40.4051 15.5743C40.3736 15.54 40.3108 15.5129 40.2165 15.4929L39.8393 15.4157C39.5908 15.3643 39.4136 15.2871 39.3079 15.1843C39.2051 15.0786 39.1536 14.9429 39.1536 14.7771C39.1536 14.66 39.1879 14.55 39.2565 14.4471C39.3279 14.3443 39.4336 14.2614 39.5736 14.1986C39.7136 14.1329 39.8879 14.1 40.0965 14.1C40.3108 14.1 40.4965 14.1343 40.6536 14.2029C40.8136 14.2686 40.9393 14.3671 41.0308 14.4986L40.6793 14.8414C40.6165 14.7414 40.5336 14.6657 40.4308 14.6143C40.3308 14.56 40.2251 14.5329 40.1136 14.5329C40.0336 14.5329 39.9651 14.5414 39.9079 14.5586C39.8508 14.5757 39.8079 14.6 39.7793 14.6314C39.7508 14.66 39.7365 14.6971 39.7365 14.7429C39.7365 14.7886 39.7565 14.8286 39.7965 14.8629C39.8365 14.8943 39.9093 14.9214 40.0151 14.9443L40.4522 15.0343C40.6636 15.0771 40.8151 15.15 40.9065 15.2529C40.9979 15.3529 41.0436 15.4743 41.0436 15.6171C41.0436 15.7543 41.0065 15.8771 40.9322 15.9857C40.8608 16.0914 40.7536 16.1757 40.6108 16.2386C40.4708 16.2986 40.2979 16.3286 40.0922 16.3286Z" fill="white"/>
<path d="M23.5857 19.2L23.8552 20.0292H24.727L24.0217 20.5416L24.2911 21.3708L23.5857 20.8584L22.8804 21.3708L23.1498 20.5416L22.4445 20.0292H23.3163L23.5857 19.2Z" fill="#2A9D8F"/>
<path d="M26.6716 19.2L26.864 19.7923H27.4868L26.983 20.1583L27.1754 20.7506L26.6716 20.3845L26.1678 20.7506L26.3602 20.1583L25.8564 19.7923H26.4792L26.6716 19.2Z" fill="#2A9D8F"/>
<path d="M20.5002 19.2L20.6927 19.7923H21.3154L20.8116 20.1583L21.004 20.7506L20.5002 20.3845L19.9964 20.7506L20.1888 20.1583L19.685 19.7923H20.3078L20.5002 19.2Z" fill="#2A9D8F"/>
<path d="M39.8716 18.1714H43.3002L39.8716 20.2286V18.1714Z" fill="#49646F"/>
<path d="M7.12842 18.1714H3.69985L7.12842 20.2286V18.1714Z" fill="#49646F"/>
</svg>
