<svg width="22" height="27" viewBox="0 0 22 27" fill="none" xmlns="http://www.w3.org/2000/svg">
<path d="M11 0.666626C5.39999 0.666626 0.333328 4.95996 0.333328 11.6C0.333328 15.84 3.6 20.8266 10.12 26.5733C10.6267 27.0133 11.3867 27.0133 11.8933 26.5733C18.4 20.8266 21.6667 15.84 21.6667 11.6C21.6667 4.95996 16.6 0.666626 11 0.666626ZM11 14C9.53333 14 8.33333 12.8 8.33333 11.3333C8.33333 9.86663 9.53333 8.66663 11 8.66663C12.4667 8.66663 13.6667 9.86663 13.6667 11.3333C13.6667 12.8 12.4667 14 11 14Z" fill="#238478"/>
</svg>
