<svg width="200" height="200" viewBox="0 0 200 200" fill="none" xmlns="http://www.w3.org/2000/svg">
<path d="M46.1359 21.8336L46.1379 21.8336L120.637 21.8335H120.698H120.737H120.749V21.8336C120.931 21.838 121.114 21.857 121.297 21.8924C121.948 22.0112 122.549 22.3218 123.023 22.7862L123.024 22.7875L157.401 56.7724C157.402 56.7726 157.402 56.7728 157.402 56.7729C157.467 56.8366 157.53 56.9033 157.589 56.9718L157.592 56.9753C157.598 56.9819 157.607 56.9913 157.617 57.0032C157.663 57.0574 157.713 57.1194 157.76 57.1862C157.782 57.2151 157.801 57.2428 157.815 57.2639L157.816 57.2661L157.831 57.288L157.844 57.3114L157.846 57.3149L157.849 57.3198L157.853 57.3268C157.855 57.3309 157.858 57.3364 157.862 57.3428C157.909 57.4146 157.949 57.486 157.984 57.5475L157.986 57.5516C158.092 57.746 158.18 57.9517 158.245 58.1658M46.1359 21.8336L157.069 167.774C157.596 167.243 157.89 166.525 157.888 165.777H158.388M46.1359 21.8336C44.3047 21.841 42.8279 23.3314 42.8334 25.1615M46.1359 21.8336L43.3334 25.1608M158.245 58.1658C158.363 58.5471 158.412 58.9464 158.388 59.3467L158.388 165.776L158.388 165.777M158.245 58.1658C158.245 58.1661 158.245 58.1664 158.245 58.1666L157.767 58.3128L158.245 58.1651C158.245 58.1653 158.245 58.1656 158.245 58.1658ZM158.388 165.777C158.39 166.657 158.044 167.502 157.424 168.126L157.424 168.126C156.802 168.751 155.958 169.102 155.079 169.105H155.077H139.386L158.388 165.777ZM100.806 169.105H46.1379H46.1359C44.3047 169.097 42.8279 167.607 42.8334 165.777M100.806 169.105L43.3334 25.1608M100.806 169.105V182.842V169.105ZM42.8334 165.777C42.8334 165.776 42.8334 165.776 42.8334 165.776L43.3334 165.777H42.8334V165.777ZM42.8334 165.777V25.1615M42.8334 25.1615C42.8334 25.1618 42.8334 25.1621 42.8334 25.1624L43.3334 25.1608M42.8334 25.1615V25.1608H43.3334M49.4651 28.4653H117.372V59.1436V59.6436H117.412C117.659 61.237 119.038 62.4544 120.7 62.4481H120.699V61.9481L120.701 62.4481L49.4651 28.4653ZM49.4651 28.4653L49.4667 162.473H100.807M49.4651 28.4653L151.751 62.4481M151.751 62.4481V162.472M151.751 62.4481H152.251V162.472H151.751M151.751 62.4481V61.9481L138.887 162.472H139.387M151.751 162.472H139.387M151.751 162.472V162.972H139.387V162.472M139.387 162.472V151.587M139.387 151.587C143.169 147.205 145.475 141.534 145.475 135.325C145.475 121.46 134.054 110.191 120.095 110.191C106.134 110.191 94.7133 121.46 94.7133 135.325C94.7133 141.536 97.0221 147.21 100.807 151.594M139.387 151.587C139.346 151.635 139.304 151.683 139.263 151.73L138.887 151.401H139.387V151.587ZM100.807 151.594V162.473M100.807 151.594V151.407H101.307L100.931 151.736C100.889 151.689 100.848 151.642 100.807 151.594ZM100.807 162.473H101.307L100.807 162.973V162.473ZM107.44 157.052V165.551C107.452 165.716 107.452 165.881 107.44 166.047V177.221L118.505 171.145L107.44 157.052ZM107.44 157.052C111.171 159.193 115.487 160.439 120.095 160.439C124.712 160.439 129.041 159.19 132.778 157.042V165.529C132.765 165.695 132.765 165.863 132.778 166.03V177.241L121.712 171.143L120.97 170.734V170.844C120.151 170.624 119.267 170.723 118.507 171.144L107.44 157.052ZM72.1992 92.1943C70.3673 92.289 68.9585 93.8503 69.0532 95.6837L69.4814 95.6615L69.0532 95.6837C69.1476 97.5113 70.7029 98.9176 72.5291 98.8304H128.702C130.535 98.8304 132.021 97.3445 132.021 95.512C132.021 93.6782 130.534 92.1937 128.702 92.1937H72.529C72.4194 92.1884 72.3087 92.1887 72.1992 92.1943ZM72.1992 92.1943L72.2251 92.6937M72.1992 92.1943C72.1992 92.1943 72.1992 92.1943 72.1991 92.1943L72.2251 92.6937M72.2251 92.6937C70.6688 92.7741 69.472 94.1003 69.5525 95.6579C69.6329 97.2141 70.9604 98.4109 72.5167 98.3304L72.2251 92.6937ZM72.5154 74.7625L72.5056 74.3193C70.7027 74.3592 69.2624 75.8321 69.2624 77.635C69.2624 79.438 70.7027 80.9108 72.5056 80.9508L72.5056 80.9509H72.5167H128.702V80.951L128.713 80.9508C130.516 80.9108 131.956 79.438 131.956 77.635C131.956 75.8321 130.516 74.3593 128.713 74.3193V74.3192H128.702H72.5167H72.5154V74.7625ZM124.004 33.0902L146.981 55.8165H124.004V33.0902ZM120.095 116.832C130.506 116.832 138.843 125.105 138.843 135.328C138.843 145.549 130.505 153.807 120.095 153.807C109.684 153.807 101.351 145.55 101.351 135.328C101.351 125.105 109.685 116.832 120.095 116.832ZM120.095 122.833C113.193 122.833 107.5 128.441 107.5 135.328C107.5 142.216 113.195 147.8 120.095 147.8C126.995 147.8 132.694 142.216 132.694 135.328C132.694 128.441 126.996 122.833 120.095 122.833ZM120.095 129.469C123.447 129.469 126.063 132.083 126.063 135.327C126.063 138.571 123.446 141.19 120.095 141.19C116.744 141.19 114.132 138.572 114.132 135.327C114.132 132.083 116.743 129.469 120.095 129.469Z" fill="#264653" stroke="#264653"/>
</svg>
