<svg width="16" height="15" viewBox="0 0 16 15" fill="none" xmlns="http://www.w3.org/2000/svg">
<path d="M14.025 10.2165L11.9084 9.9748C11.4 9.91647 10.9 10.0915 10.5417 10.4498L9.00837 11.9831C6.65003 10.7831 4.7167 8.85813 3.5167 6.49147L5.05837 4.9498C5.4167 4.59147 5.5917 4.09147 5.53337 3.58313L5.2917 1.48313C5.1917 0.641466 4.48337 0.00813293 3.63337 0.00813293H2.1917C1.25003 0.00813293 0.466701 0.791466 0.525034 1.73313C0.966701 8.8498 6.65837 14.5331 13.7667 14.9748C14.7084 15.0331 15.4917 14.2498 15.4917 13.3081V11.8665C15.5 11.0248 14.8667 10.3165 14.025 10.2165Z" fill="white"/>
</svg>
