<svg width="32" height="32" viewBox="0 0 32 32" fill="none" xmlns="http://www.w3.org/2000/svg">
<path d="M14.56 17L16 15.9066L17.4267 16.9866C17.9467 17.3733 18.6533 16.88 18.4667 16.2533L17.9067 14.44L19.5067 13.1733C20 12.8 19.72 12 19.08 12H17.2133L16.64 10.2133C16.44 9.59996 15.5733 9.59996 15.3733 10.2133L14.7867 12H12.9067C12.28 12 12 12.8 12.4933 13.1866L14.08 14.4533L13.52 16.2666C13.3333 16.8933 14.04 17.3866 14.56 17ZM7.99999 28.8133C7.99999 29.72 8.89333 30.36 9.75999 30.08L16 28L22.24 30.08C23.1067 30.3733 24 29.7333 24 28.8133V20.3733C25.6533 18.4933 26.6667 16.04 26.6667 13.3333C26.6667 7.43996 21.8933 2.66663 16 2.66663C10.1067 2.66663 5.33333 7.43996 5.33333 13.3333C5.33333 16.04 6.34666 18.4933 7.99999 20.3733V28.8133ZM16 5.33329C20.4133 5.33329 24 8.91996 24 13.3333C24 17.7466 20.4133 21.3333 16 21.3333C11.5867 21.3333 7.99999 17.7466 7.99999 13.3333C7.99999 8.91996 11.5867 5.33329 16 5.33329Z" fill="#238478"/>
</svg>
